<svg xmlns="http://www.w3.org/2000/svg" viewBox="0 0 53.9 50.6"><g id="Layer_2" data-name="Layer 2"><g id="Layer_1-2" data-name="Layer 1"><g id="Layer_2-2" data-name="Layer 2"><g id="Layer_1-2-2" data-name="Layer 1-2"><g id="Group_33" data-name="Group 33"><g id="Group_32" data-name="Group 32"><path id="Path_144" data-name="Path 144" d="M50.6,13.7a.54.54,0,0,0-.8-.2h0l-7.6,4.4h0a.57.57,0,0,0-.4.7c.1.2.2.4.5.4a.45.45,0,0,0,.5,0l7.7-4.4a.72.72,0,0,0,.1-.9Zm3.3,8.9c0-.3-.3-.5-.7-.5h0l-8.7,1.5a.75.75,0,0,0-.5.7h0a.75.75,0,0,0,.7.5h0l8.7-1.5a.75.75,0,0,0,.5-.7Zm-.5,8.8-8.7-1.5c-.3-.1-.6.2-.7.5s.2.6.5.7l8.7,1.5a.75.75,0,0,0,.7-.5h0a.75.75,0,0,0-.5-.7Zm-43.5-1a.75.75,0,0,0-.7-.5L.5,31.4a.75.75,0,0,0-.5.7.75.75,0,0,0,.7.5l8.7-1.5A.75.75,0,0,0,9.9,30.4Zm-.5-6.7L.7,22.2a.56.56,0,0,0-.6.5h0a.68.68,0,0,0,.4.6l8.7,1.5a.6.6,0,1,0,.5-1.1H9.4Zm2.3-5.8L4,13.5a.54.54,0,0,0-.8.2.54.54,0,0,0,.2.8h0L11,18.9a.57.57,0,0,0,.8-.8C11.9,18,11.8,17.9,11.7,17.9Zm4.2-4.7L10.2,6.4a.78.78,0,0,0-.8-.2.63.63,0,0,0-.3.8.1.1,0,0,0,.1.1l.1.1L15,14a.53.53,0,0,0,.8.1.63.63,0,0,0,.1-.9Zm5.5-2.9L18.4,2a.63.63,0,0,0-.8-.4h0a.63.63,0,0,0-.4.8h0l3,8.3a.63.63,0,0,0,1.2-.4ZM27,0a.65.65,0,0,0-.6.6h0V9.4a.54.54,0,0,0,.7.5.47.47,0,0,0,.5-.5h0V.6A.65.65,0,0,0,27,0Z" fill="#f23d3d"/><path id="Path_145" data-name="Path 145" d="M36.7,2.4l-2.8,7.8-.2.5a.63.63,0,0,1-.8.4h0a.68.68,0,0,1-.4-.8v-.1l3-8.2a.68.68,0,0,1,.8-.4.91.91,0,0,1,.4.8Z" fill="#e31313"/><path id="Path_146" data-name="Path 146" d="M44.6,7.2l-4.5,5.4L38.9,14a.57.57,0,0,1-.9-.7h0l1.2-1.4,4.5-5.4a.55.55,0,0,1,.8-.2.63.63,0,0,1,.1.9Z" fill="#e31313"/><path id="Path_147" data-name="Path 147" d="M41.6,27.3V41.9H12.3V38.8A6.79,6.79,0,0,0,13.5,40c5,4,14.9,1,22-6.7a28.37,28.37,0,0,0,5.7-9.2A12.19,12.19,0,0,1,41.6,27.3Z" fill="#fd5c5c"/><path id="Path_148" data-name="Path 148" d="M45.8,44.7v1.8H8.1V44.7a2.84,2.84,0,0,1,2.7-2.8H43.1A2.71,2.71,0,0,1,45.8,44.7Z" fill="#ff8080"/><path id="Path_149" data-name="Path 149" d="M49.7,47.9v2.7H4.1V47.9c0-.8.9-1.4,2-1.4H47.6C48.8,46.5,49.7,47.1,49.7,47.9Z" fill="#66b6e6"/><path id="Path_150" data-name="Path 150" d="M9.2,45.4c2.9-.2,5.9-.2,8.9-.3S24,45,26.9,45s5.9,0,8.9.1,5.9.1,8.8.3c-3,.2-5.9.2-8.8.3s-5.9.1-8.9.1-5.9,0-8.9-.1Z" fill="#dcdcdc"/><path id="Path_151" data-name="Path 151" d="M6.6,49.2c3.4-.2,6.8-.2,10.1-.3s6.8-.1,10.1-.1,6.8,0,10.2.1,6.8.1,10.2.3c-3.4.2-6.8.2-10.2.3s-6.8.1-10.2.1-6.8,0-10.1-.1Z" fill="#2e6d98"/></g><path id="Path_152" data-name="Path 152" d="M29.4,27.7c-5.4,5.9-12.8,8.1-16.6,5.1-.2-.1-.3-.3-.5-.5V27.4a4.87,4.87,0,0,1,.1-1.2A14.6,14.6,0,0,1,28.2,12.8h0a14.09,14.09,0,0,1,6.1,1.9C35.2,18.2,33.4,23.3,29.4,27.7Z" fill="#fd5c5c"/><path id="Path_153" data-name="Path 153" d="M41.2,24.2a28.37,28.37,0,0,1-5.7,9.2c-7.1,7.8-17,10.8-22,6.7a4.89,4.89,0,0,1-1.2-1.3V32.2l.5.5c3.8,3,11.2.8,16.6-5.1,4-4.3,5.8-9.4,4.8-13A14.55,14.55,0,0,1,41.2,24.2Z" fill="#ff8080"/><path id="Path_154" data-name="Path 154" d="M42.3,18.9a.57.57,0,0,1-.4-.7h0q0-.15.3-.3h.1Z" fill="red"/><path id="Path_155" data-name="Path 155" d="M23.4,23.2c-2.4,2.3-5.5,2.9-6.8,1.4s-.5-4.5,1.9-6.7S24,15,25.3,16.5,25.8,20.9,23.4,23.2Z" fill="#f23d3d"/><path id="Path_156" data-name="Path 156" d="M28,26.6c-1.1,1-2.4,1.4-3,.9s0-1.9,1.1-2.9,2.4-1.4,3-.9S29.1,25.5,28,26.6Z" fill="#f23d3d"/></g></g></g></g></g></svg>