<svg xmlns="http://www.w3.org/2000/svg" viewBox="0 0 595.78 695.03"><g id="Layer_2" data-name="Layer 2"><g id="Layer_1-2" data-name="Layer 1"><path d="M526.56,170c-14.57-8.93-29.43-17.28-45.46-23.4a235.52,235.52,0,0,0-101.57-15.25C320.07,135.52,269.27,159.19,228,202c-31.4,32.56-51.51,71.41-58.72,116.33-6.84,42.58-2.43,84,15.06,123.64a222.72,222.72,0,0,0,41.6,62.71,233.46,233.46,0,0,0,76.74,54.05,222.24,222.24,0,0,0,66.06,17.58c30.72,3.36,61.2,1.49,91.06-7.08A222.1,222.1,0,0,0,496,555.52c1.77-.86,3.64-1.54,5.46-2.31,6.71.83,10.64-3.33,14.28-8l0,0c4.53,1.36,7.07-4.18,11.72-3.66-.7,3.28-3.78,3.38-5.31,5.08-6.46,7.23-14.43,12.66-21.94,18.63-1.63,1.29-1.94,2.44-1.31,4.17-18.55,14.53-39.17,25.46-60.93,34.17a263,263,0,0,1-66.3,16.71,272,272,0,0,1-79.75-2,258.41,258.41,0,0,1-101.54-40.89c0-2.14-1.79-3-3.19-4-5.84-4.45-11.62-9-17.47-13.41-3.21-2.41-4.6-8.33-10.47-6.6a239.93,239.93,0,0,1-40.85-45.3C100.59,482.91,88,455.26,79.68,425.67a267.77,267.77,0,0,1,10.81-174,266.51,266.51,0,0,1,53.42-82.1c31-32.77,68.11-55.73,110.78-69.75a266.78,266.78,0,0,1,72.68-13.21,270.07,270.07,0,0,1,114.24,19.77c27.86,11.33,53.37,26.76,75.57,47.31,2.91,2.69,6.4,4.76,8.57,8.22.06,2,1.33,3.18,2.55,4.52.69.77,2.23,1.4,1.73,2.64C529.43,170.6,527.73,169.64,526.56,170Z" fill="#ad2b25"/><path d="M365.1,291.8c-4.86,4.52-8,10.31-11.34,16.87-4-7.28-2.61-14-2.17-20.7.16-2.38,2.21-5.44.07-7-2.61-1.86-5.16.95-7.64,2.18-3.68,1.82-5.73,5.25-8.67,9.21-2.19-7.81-1.52-14.18,2.41-20.19,1.06-1.62,3.46-3.65,2.23-5.06-1.78-2-4.25.21-6.32,1.05-4,1.64-6,6-10.15,8.15-1-5,.09-9.27,1.54-13.51.66-1.94,2.26-3.83,1-6.12l.76-.16-.23-.39-.44.65c-2.43-1-4.09.69-5.93,1.7-2.37,1.31-3,.3-2.65-2a24,24,0,0,1,8.55-14.71c1.12-.94,2.8-2.12,2.23-3.53s-2.48-1.41-4-1.31c-2.94.2-5.88.46-9.77.78,4.3-7,10.42-9.77,17.06-11.75a51.72,51.72,0,0,1,5.87-1c1.2-.2,3,.39,3-1.62,0-1.53-1.48-2-2.69-2.59-3.14-1.5-6.52-.93-9.8-1.18-1.24-.1-3,.78-3.63-.6-.77-1.81,1-3.06,2.18-4.06,5.12-4.17,11.13-5.68,17.64-5.5,2.15.06,4.31.31,6.46.23,1,0,2.58.44,2.74-1.31.11-1.25-.66-2.06-1.76-2.74a18.72,18.72,0,0,0-6.82-2.9c-2.68-.44-2.54-1.63-.87-3.2,6-5.66,13.33-6.11,21-5.07,1.77.24,3.51.78,5.31,1.19.18-5.51.18-5.51-8.68-10,6.75-6.81,14.42-7.69,22-2.44,2.1,1.47,3.79,1.2,5.83-.3a16.41,16.41,0,0,1,19.76.62c1.76,1.48,2.64,2.67-.28,3.78a14.51,14.51,0,0,0-3,1.73c-1.71,1.18-3.37,2.93-2.7,4.89.83,2.43,3.07.67,4.67.48,6.55-.78,12.95-.61,18.83,2.83,1.7,1,3.61,2.4,3.46,4.44-.14,1.7-2.53,1.05-3.8,1.75-.71.4-1.68.39-2.31.86-1.26.95-3.45,1.69-2.93,3.55s2.55,1,4,.9c8-.37,15.55.83,21.76,6.53,1.13,1,2.51,2.06,1.86,3.71s-2.27.67-3.49.73c-.17,0-.34,0-.5,0-3.35.59-8.78-.47-9.39,2.62-.66,3.3,4.85,2.5,7.49,3.87,5.52,2.88,11.69,4.81,15.33,11.56-3.61,0-6.64,0-9.67,0-.95,0-2.1-.25-2.67.83-.68,1.28.22,2.14.94,3.07,2.23,2.85,5.32,5.07,6.39,8.76-1.22,4.13-3,4.55-9,1.73,1.17,2.68-4.5,6.2,1.86,7.6,1.32,4.15,4.61,7.69,3.86,12.49-.19,1.22.79,2.93-.83,3.53-1.37.5-1.69-1.26-2.48-2-.35-.34-.58-.82-.94-1.16-2.32-2.15-5.18-5.19-7.89-4.19-2,.74.07,4.76.39,7.25.69,5.43,1.51,10.77-.33,16.51-2.71-3-5.25-5.53-7.52-8.31a7.71,7.71,0,0,0-3.49-2.6c-2-.73-4.46-2.24-6.07-.93s0,3.73.54,5.52c2.17,7.35,1,14.36-1.43,21.36-2.13-.48-2.25-2.1-2.68-3.5-1.69-5.54-5.7-9.2-10.18-12.44-1.21-.88-2.73-1.76-4.14-1.22-1.78.68-1,2.6-1,4-1.23,27.41-.61,54.82-.1,82.24.1,5.15.3,10.33-.06,15.46-.31,4.36,1.47,5.36,5.45,5.22,7.64-.27,15.3-.16,22.95-.1,1.69,0,4-.73,4.77,1.47.59,1.81-1.34,2.84-2.51,4-6.15,6-12.36,12-18.44,18.08-1.82,1.83-3.6,3.21-6.35,3.33a388.15,388.15,0,0,1-42.74-.22,7.67,7.67,0,0,1-5.15-2.59c-5.14-5.15-10.3-10.26-15.46-15.39.1-.48.45-1.18.25-1.41-2.53-2.91-3-4.24,1.91-4.85,5.66-.71,11.11.72,16.71.4,4.06-.23,7.34-1.16,10.06-4.11l.74.93c.09-.12.26-.22.27-.34,0-.83,0-1.66,0-2.49q0-48,0-96c0-.6,0-1.19,0-1.79-.35-2.35,1-4.94-1-7.05C369.93,288.68,365.7,285.55,365.1,291.8Z" fill="#26a652"/><path d="M366.7,457.59l-.79-.86c-.84-4.61-5.38-9.06-9.15-9l.32-.17-.31.18c.24-1.69-.41-2.38-2.12-1.86l0-.06c.62-3.8-1.54-4.6-4.68-4.33-6.82-4.67-13.49-9.56-20.47-14-19.24-12.13-40.12-20.32-62.27-25.43-13.62-3.14-27.32-5.47-41.32-5.74-.94,0-2.06.18-2.8-1.93,7.54-1.22,14.91-2.84,22.36-3.54,27.77-2.6,54.21,2.67,79.12,14.94,23.61,11.62,43.68,27.95,60.66,48,2.15,2.54,3.71,3.38,5.65.34,7.21-11.27,17.74-19.25,27.9-27.42A172.66,172.66,0,0,1,458,402.55c28.06-12.16,57.1-15.66,87.15-9.41,2.66.55,5.59.27,8,2-.79,1.26-2,1.21-3.16,1.24-21.54.62-42.33,4.95-62.79,11.73a188.53,188.53,0,0,0-68,40.06c-4.57,4.15-8.46,8.86-12.88,13.1-3.9,3.74-5.14,7.5-1.25,11.94,1.07,4.75,3,8.57,8.83,8.21l0,0c.12,2.18-.17,4.77,3.45,3.36l.15.14c-.55,1.79,0,2.51,1.85,1.81l.18.21c-.77,3,.61,4.29,3.53,4.38,1.28,0,3.12-.24,3.72.46,2.46,2.86,2.89,1.23,3.23-1.16l.26-.17c4-1.11,4.81-3.08,1.93-6.35a22.39,22.39,0,0,1-2.2-3.74c.11-.68.21-1.36.32-2,.17-.36.34-.72.5-1.08l0,0c2.53-.24,2.8-2.12,3-4.08v0l7.33,0c4.31,4.46,4.53,9.86.42,15.63a21.58,21.58,0,0,1-5.37,5.79c-3,2-2.28,4.18-.1,6.44a18.2,18.2,0,0,0,25.88.13,61.89,61.89,0,0,1,5.54-5c5.28-4,11.87-3.41,15.49,1.35,3.46,4.56,2.38,10.86-2.66,15a30.75,30.75,0,0,1-13.37,6.16c-13.78,3-26.64,1.64-38.11-7.36-5.28-4.15-5.12-3.84-9.95,1.28-4.48,4.75-9.74,8.42-16.94,6.62-.36-2.82-2.44-1.94-4.13-1.93h0c-.19-2.63-2.22-5.86.92-7.63s6.65-4.44,10.57-.73a3.47,3.47,0,0,0,4.94-.09c1.71-1.69,2.24-3.58.64-5.68-1.12-5.07-3.34-9.11-9.15-9.81l0,0c-2.08-6.13-7.52-8-12.77-10.19l0,0c-.79-1.72-.12-5.22-4-3.22l-2.07.1c-3.74-1.89-3.3,1.29-3.89,3.22l0,0a1.78,1.78,0,0,0-2.09,1.91l0,0c-2-.22-3.1.56-3.09,2.65l-.33.21L376,489.41a46.39,46.39,0,0,1-10.62,8.13c-2.77,0-3.19,1.87-3.11,4.07l.05-.06c-2.54,1.67-3.56,4.09-2,6.67,1.33,2.22,3.77,1.73,6.15,1.31,3.32-.59,6.16-3.1,9.77-2.39l0,0c.27,2.1.66,4.2.75,6.31.06,1.37.55,3.54-1.43,3.66-3.31.21-6.51.72-10-.93-4.94-2.34-6.71-7.89-11.68-10-3.06-1.29-4-.48-3.68,2.58l-.81.78c-1.85-.22-3.71-.38-5.13,1.15a18.25,18.25,0,0,1-10.41,5.84c-4.33.73-8.3,2.92-12.82,2.86-2.57,0-4.17-2.37-7-2.09-8.38.85-14.35-3.6-19.55-9.55a5.21,5.21,0,0,1-.18-7.24c2-2.37,3.74-6.18,7.84-4.84,3.2,1.05,6.72,1.92,8.63,5.37.86,1.54,2,3.36,3.46,4.07,5.79,2.78,12.07,2.62,18.32,2.2.94-.06,1.34-.86,1.52-1.72a1,1,0,0,1,.83-.25c1.49-.36,4.31,1.23,3.55-2.42l.18-.1c2.4,1.13,3.9.4,5.24-1.92a5,5,0,0,0-1.26-6.68c-2.87-2.33-4.69-5.24-6.85-8.08-2.59-3.4-1.76-6.32-.76-9.62,1.14-3.74,4.11-3.12,6.9-3,.1.81-.1,1.87.34,2.39,3,3.56,3.85,6.92.16,10.66-.91.92-.38,2.54,1.38,2.93l.2.26.85.71.18.07c1,.71-.24,3,2,2.8,1.74.22,3.2-.13,4-1.87l2-.09c2.49-1.56,6.14-2.06,5.7-6.28,3.42.76,4.05-1.28,4-4,4.27-.24,5.93-3.32,7.27-6.73l1-.93c1.38-.16,3,.45,3.83-1.38C376.79,467.86,371.59,458.59,366.7,457.59Z" fill="#b48733"/><path d="M49.8,269c2.53-5.1,4.3-9.28,1.35-13.55-.91-1.31-1.65-3.33-3.48-3.08-1.64.23-1.62,2.29-2.09,3.66-2.53,7.38-6.75,8.86-13.3,4.65a24.63,24.63,0,0,1-7.76-7.58c-3.35-5.3-1-10.35,5.15-11.31a4.22,4.22,0,0,1,1.49-.1c7.93,1.86,11.63-1.94,13.47-9.29,1-4.13,3.3-7.94,5-11.92.41-1,1.69-1.93.36-3.06a3.38,3.38,0,0,0-3.33-.44,49,49,0,0,0-4.46,2.12c-1.41.64-2.16,3.93-4.19,1.72s-5.63-4.19-4.85-8a75.55,75.55,0,0,1,3.33-10.35c1.16-3.2,3.34-5.27,6.93-5.56,3.79-.31,6.32,1.61,8.18,4.62,1.27,2.07,2.36,4.25,3.9,7,5.72-10.17,11-19.82,17.15-29a10.4,10.4,0,0,0-6.29-1.74c-1.44,0-2.82-.37-3.32-1.73-.68-1.82-2.26-3.88-1.21-5.61.89-1.46,3.11-.3,4.69-.15a73.65,73.65,0,0,1,8.33,1.33,3.77,3.77,0,0,0,4.55-1.74c4.31-6.08,4.47-6.18-2.82-7.82-4.23-1-3.47-4.38-3.93-7-.27-1.55,1.68-1.16,2.72-.92a77.58,77.58,0,0,1,8.12,2.15,11,11,0,0,0,4.9.54c2.19-.26,2.91-2.25,3.37-3.9.6-2.16-1.76-1.82-2.86-2.54-1.48-1-4.06.05-4.77-2.06s-2.71-4.56-1.19-6.54,4-.45,6,.15a6,6,0,0,1,3,1.55c3.73,5,6.46,2.71,9.32-.92a60,60,0,0,1,6.3-7c2.85-2.63,1.72-4.42-.69-6.37-5-4.06-10-8.2-15-12.3-1-.82-1.92-1.88-3.4-1.88-5,0-3.7-4.22-4.29-6.91-.75-3.41,2.44-1.5,3.68-2.29a6.08,6.08,0,0,1,1.35-.61c6.65-2.34,6.87-2.33,8.25,4.6.41,2.08,1.57,3.06,2.91,4.31,6,5.62,13.06,10.27,16.9,18,1.63,3.27,1.58,5.66-1.32,8.29a118.9,118.9,0,0,0-14.61,15.23c-4.78,6.23-9.81,12.49-14.31,19.06-8.9,13-16.68,26.59-24.39,40.27-4.79,8.51-7.85,17.8-11.72,26.72-1.27,2.93-1,4.83,1.71,6.71a23.18,23.18,0,0,1,7,6.95c3.46,5.68,2.38,9.12-3.86,11.47C54.24,267.43,52.69,268,49.8,269ZM35.21,246.82c-3.37-.22-5.72.84-5.47,4.23.2,2.66,1.34,5,4.91,4.78,4.47-.27,3.5-3.7,4-6.32C39.23,246.13,36.78,246.84,35.21,246.82Zm10.65-38c1-.29,2.79.7,2.7-1.57A2.3,2.3,0,0,0,46,204.88c-1.61-.06-2.34.75-2.47,2.34C43.42,209,44.53,209,45.86,208.84Z" fill="#292829"/><path d="M375.23,33.6c2.33-1.1,3.52-2.15,3.78-4,.66-4.74,2.05-9.53,1.77-14.22-.35-6,2.81-9,7.16-11.76.69-.44,1.32-1.14,2.19-.57s.43,1.33.3,2.17c-1.48,9.83-2.76,19.69-4.32,29.51-.58,3.65.44,5.6,4.2,6.17s7.48,1.45,11.22,2.16a6.41,6.41,0,0,0,6.59-2.37c4.95-5.69,11.36-9.63,17.45-13.95,1.92-1.36,3.53-1.33,4.19,1.11,1.74,6.41,5.33,13.06-2,18.53-2.12,1.58-1.12,2.62.87,3.29,6,2,11.95,3.95,17.87,6.06,2,.7,2.89-.06,3.29-1.75,2.08-8.76,6.21-17,5.91-26.38-.11-3.58,3.43-4.2,5.76-5.46,2.92-1.58,1.64,1.9,2.72,2.71,5.45,4.11,6.75,7.18-.63,11.51-2.94,1.72-3.23,8-4.65,12.25-.74,2.19-1,4.6-2,6.62-5.68,11.08-7.16,11.58-19,7.15-.62-.23-1.29-.31-1.92-.52-8.91-3-8.91-3-14.51,4.69a14.48,14.48,0,0,1-17.22,5.26c-6.14-2.28-9.14-8.15-6.69-15.06,1.7-4.84.09-5.77-4.19-5.94a39.9,39.9,0,0,1-9.29-1.46c-5.71-1.64-6.1-2.34-6.74-9-3.92,3.46-7.1,7.57-12.68,7.15-4.88-.37-9.82-.13-15.5-1.8,6.2-2.27,11.51-4.39,16.93-6.12,3.67-1.18,4.4-3.22,3.41-6.71-1.42-5-2.88-9.89-5.92-14.16-.83-1.16-1.45-2.42-3.33-2.6-3.56-.34-4.83-3-5.23-6.19a7.45,7.45,0,0,1,4.19-7.82c2.91-1.59,4.61.9,6.06,2.78,4.24,5.52,6,12.15,7.67,18.74C373.76,26.81,374.41,30,375.23,33.6ZM413.36,65c1.72-.62,4.41-.29,5.35-2.47.88-2-1-3.74-2.18-5.19-2.61-3.07-6.2-4.17-10.13-4.37-2.35-.11-3.17,1.28-3.48,3.3C402.19,61,407,65.12,413.36,65Zm3.37-18c6.09.05,9.88-4.88,8.25-10.23-.6-2-1.3-3-3.32-1.36-2.56,2.08-5.3,3.94-7.71,6.16-1.1,1-3.43,1.75-2.74,3.64.58,1.61,2.87,1.05,4.33,1.68A3.13,3.13,0,0,0,416.73,47Z" fill="#2a2929"/><path d="M521.85,69.36c-2.27,5.93-4.29,11.53-6.56,17-.83,2-.86,3.42,1,4.72,3.94,2.76,7.84,5.58,11.75,8.39,1.37,1,2.29,1.09,2.86-.88.47-1.62,1.39-3,3.41-3.11,1.78-.11,4-1.38,5.18.12,1,1.29-.4,3.22-1.25,4.56-2.58,4.08-2.06,7,2.47,9.22a22.67,22.67,0,0,1,5.32,4.46c2.46,2.48,4.44,5.72,7.32.08,1.08-2.12,4.62-1.52,6.45-.62,2.36,1.16.19,3.38-.62,4.56-2.61,3.8-2.65,6.84,1.45,9.51a12.5,12.5,0,0,1,2.49,2.44c2.87,3.32,5.68,6.71,10.13,1.94a3.07,3.07,0,0,1,1.85-.66c4.49-.39,8.95-.63,13.28-2.3,3.37-1.31,5,.28,5.22,4.07.32,6.3,1.17,12.55.1,18.87a7.64,7.64,0,0,1-5.81,6.62c-2.52.78-5.27.65-7.66,2-1.69,1-2.36-.69-3.18-1.57-10.13-10.93-20.14-22-30.38-32.77-2.2-2.33-5.48-3.6-7.83-5.81-9.05-8.51-19.26-15.41-29.47-22.36-2-1.36-5.2-2.07-4.68-5.69,0-.28-.51-.89-.83-.92-6.09-.59-8.65-6.35-13.28-9.07-2.61-1.52-2-3.11-.19-5.15,3.85-4.35,8.18-7.43,14.23-6C510.4,72.52,515.4,68.07,521.85,69.36Zm60.94,70.57c.26-3.52-2-4.74-4.84-4.85s-5,1.59-4.9,4.38c.08,2.58,1.38,5.48,4.46,5.63S582.63,143.28,582.79,139.93ZM504.46,76.05c-1.6.58-4.67-1.24-5.39,1s2.46,3.1,3.91,4.61c.68.7,1.6,1.17,2.3,1.86,1.9,1.87,3.07,1.8,4.24-.88C512.1,76.73,511.69,76,504.46,76.05Zm83.45,71.1c-.62-1.12,0-3.53-1.88-2.75-2.26.94-5.82,1.53-6.16,4.09-.28,2,2.15,5.22,4.34,5.15C587.88,153.51,586.47,149.32,587.91,147.15Z" fill="#292829"/><path d="M148.51,120.45c6.74-2.06,8.81-6.47,9-12.28.16-5-1.48-8.21-6.63-9.54-1.61-.41-4.4-.26-4.38-3.15,0-1.92-1-4.35.77-5.64s4,0,5.36,1.25c2.86,2.6,5.21,1.86,7.83-.16a34.18,34.18,0,0,1,5.41-3.53c4.08-2,5.89-4.69,5.5-9.69-.46-6,2.62-11.17,7.21-15.11s8.58-2.83,11.09,2.54c2.89,6.18,2.83,6.07,9.27,3.21,6-2.69,12.21-5.09,18.33-7.6C219,60,221.16,59,221,57.21c-.2-2.15-2.89-1.65-4.47-2a15.88,15.88,0,0,0-10.14.86c.36-7.54,3.76-11.06,10-9.81,7.09,1.42,14.15.74,21.22,1,1.5,0,4.3-1.85,4.41,1,.09,2.66.33,6.77-3.34,7.4-6.82,1.17-11.59,4.31-14.25,10.82-.83,2-3.16,2.73-5.18,3.59-6.68,2.85-13.32,5.82-19.95,8.79-1.65.74-3.5,1.47-3.07,3.87.71,4.06-1.42,4.77-4.85,4.48-2.81-.24-5.65-.09-8.47-.07-3.21,0-6.37-1.06-7.47,4.22-.66,3.19-5.31,4.68-8.47,6.41-3.65,2-5.69,4.17-3.71,8.59a16.34,16.34,0,0,1,1,5.85c.13,3.6,1,7.88-2.67,10C157.6,124.59,153.42,123,148.51,120.45Zm35.74-41.63c1.56-.11,4.53,1.42,5.55-.31,1.33-2.23-1.43-4.37-2.37-6.58-.07-.15-.17-.28-.24-.43-1.26-2.7-3.51-2.92-5.84-2a7.42,7.42,0,0,0-4.8,7.43c.19,3.41,3.41,1.22,5.19,1.82A10.34,10.34,0,0,0,184.25,78.82Z" fill="#292829"/><path d="M237.2,18.43c-2.78-.31-2.57,2.66-4.77,3.24-.13-2.75-1.35-4.87-3-7.11-3-4.22,1.55-11.9,6.86-12.45,1.42-.14,2.32.3,2.7,1.55s.38,2.65-1.09,3.45c-1.68.92-3.89,1-5.1,3.16,2.2,2,4.33.38,6.27-.19,2.48-.72,3.83.06,3,2.42s-.17,3,1.83,3.74a43.13,43.13,0,0,1,14,9.3c2.59,2.5,3.47,1.43,4.21-1.19,1-3.42,2.27-6.5.72-10.47-1.28-3.3,2.42-5.74,4.67-8.92a8.57,8.57,0,0,0,5.05,5c4.68,1.87,5.34,5.84,1.06,8.81-4.57,3.16-4.41,8.58-7.08,12.61-1.27,1.92,1.68,3.29,3.15,4.4,4.41,3.31,6.34,7.07,4.87,12.88-.8,3.16-2,4.3-4.9,4.9C264.35,54.68,259,56,253.79,57.54c-1.95.56-2.42.27-3-1.67-1.42-5-2.16-9.69,2.44-13.53a2.41,2.41,0,0,0,.55-.83c1.23-2.56,4.9-5.46,2.77-7.73C254,31,250.64,27.62,245.46,29.1c-4,1.15-7.93-2.23-8.24-6.45C237.12,21.25,237.2,19.83,237.2,18.43ZM256.91,48c3.68-.83,6.44-1.34,9.13-2.11,1.37-.39,3.36-.41,3.79-1.92s-1.54-2.32-2.47-3.39A18,18,0,0,0,264,37.68c-1-.73-2.06-.94-2.91.47-1.44,2.42-3.11,4.71-4.48,7.18C256,46.46,255.54,48,256.91,48Z" fill="#2b2b2b"/><path d="M81.79,551.49l-7.36,5.56c-1.9,1.44-3.83,2.84-1.67,5.54a1.44,1.44,0,0,1-.13,2.2c-.87.64-1.62,0-2.11-.6q-5.44-7.1-10.79-14.27a1.64,1.64,0,0,1,.05-2.27c.77-.67,1.57-.27,2.15.38,1.84,2.06,3.8,1.69,5.74.27q10.83-7.95,21.61-15.94c1.54-1.14,2.79-2.38,1.65-4.53-.48-.9-.86-2,.5-2.43,1.2-.41,1.76.66,2.35,1.42,3.57,4.58,7.14,9.16,10.65,13.78,4.67,6.15,5.51,11.76,2.46,16-3.29,4.55-7.73,5.35-15.94,2.77-1.7,7.5-3.8,14.89-4.71,22.81-3-4.43-10-6.1-8.75-13.09C78.48,563.57,80.12,558.2,81.79,551.49Zm20.69-6.94c.14-2.44-.38-4.8-2.62-5.93-1.83-.93-3.78-.35-5.44,1.19-2,1.87-4.28,3.47-6.41,5.22-1.46,1.2-4.14,2.23-3.1,4.41a8.36,8.36,0,0,0,6,4.82C95.88,555.15,102.35,549.71,102.48,544.55Z" fill="#292829"/><path d="M216.28,647.63c1.95.16,3.35-1.26,5.06-1.78,4.39-1.33,8.62-1.34,12,2.18a12,12,0,0,1,3.21,12.32c-.65,2.35-1.43,3.07-3.76,2.13-2.6-1-5.46-1.51-7.94-2.76-3.23-1.62-3.85.44-4.3,2.63-1.12,5.34,2.94,8.85,8.39,7.34,1.38-.38,3.33-1.52,3.94,0,.74,1.87-1.5,2.63-2.93,3.34a13.92,13.92,0,0,1-16-2.8c-4.14-4.33-4.45-10.41-.83-17,.86-1.57,1.87-3.05,3.39-5.53-4.89,2.16-7.65,1.18-9.26-3.17-.93-2.5-3-.92-3.66.27-2.36,4.17-4.43,8.5-6.47,12.83-.62,1.31.07,2.55,1,3.62.61.66,1.79,1.34.8,2.43-.85.92-1.82.23-2.71-.2-3.73-1.78-7.48-3.52-11.18-5.37-.67-.33-1.54-1.06-1.6-1.68-.14-1.51,1.18-1.13,2.11-1.22a3.42,3.42,0,0,0,1.42-.39c2.21-1.25,9.64-17.45,8.73-19.86s.27-3.33,1.72-2.38c2.89,1.87,7.59,1.36,8.51,6,.18.93.94.62,1.52.63C216.35,639.25,216.36,639.26,216.28,647.63Zm14.81,4.21c-.06-2.37-.68-4.07-3.14-3.73-3.5.48-5.18,3.31-5.43,6.21-.23,2.62,3,3.21,4.82,3.15C230.91,657.37,230.39,653.91,231.09,651.84Z" fill="#2e2e2d"/><path d="M319.69,34.92c.15,3.41.11,6.85.51,10.23.79,6.81,4.26,9.24,10.9,8,7-1.35,10.2-5.07,10-12.1-.26-8.78-.68-17.55-1.17-26.32-.12-2.1-.06-4.42-1.63-6.12-1.95-2.12-1-3.74.37-5.68,1.85-2.6,3.54-4.34,6.43-1.26a7.41,7.41,0,0,0,2.17,1.18c5,2.45,5.52,3.9,1.85,8.25-1.76,2.08-1.55,3.77-1.48,6.15.32,12,1.74,24.19-2.52,35.92-2,5.4-12.5,10.22-20,9.06-5.6-.87-8.85-5.69-9-13C316.08,44.16,316.68,39.34,319.69,34.92Z" fill="#302f2f"/><path d="M49.63,320.46c-1.21-.62-1.82,0-2.24,1.06-3,7.42-9.23,8-15.74,7.1a22.63,22.63,0,0,1-12.86-6.18c3.08.45,6.16,1.1,9.26,1.3,6.1.38,9.79-1.76,11.23-6.17,1.14-3.5-2-13.16-4.79-15.16-1.3-.93-1.63-.16-2.17.77-.92,1.58-1.92,3.1-2.93,4.62-3.95,5.95-5.17,6.15-10.94,1.81-7.1-5.32-10.83-13.8-9-20.11.69-2.46,1.85-4.22,4.49-3,2.07.94,5.71,1.17,4,5.29a8.53,8.53,0,0,0-.52,3.91c.27,2.56-.23,6.13,2.73,6.89,2.57.66,3.08-2.88,4.46-4.59,1.14-1.42,1.93-3.12,3.08-4.53s2.64-2.23,4.36-1c6.67,4.67,13.56,9.11,15.63,17.89.52,2.21-.32,4.23,0,6.31.19,1.34-1.13,3.69,2,3.45Z" fill="#2b2b2b"/><path d="M530,631.3c.48-2-.5-3.5-1.6-5-2.44-3.34-4.8-6.74-7.22-10.1-.48-.67-1.31-1.19-1.57-1.92-.84-2.39-5.8.13-4.56-2.7,1.34-3.07,5.23-5.47,8.62-5.89,2.09-.26,2.6-.58,3.11-2.2.87-2.77,2.41-4.8,5.68-4.49,1.65.16,2.07-.5,2.56-2.08,1.11-3.54,4.9-4.67,7.38-7,1.2-1.12,2.67.77,3.61,1.8,3.21,3.58,6.25,7.32,9.46,10.89,1.43,1.6,3,4,4.72,4.24,8,1,1.58,3.48.44,4.77a59,59,0,0,1-6.31,5.57c-.62.53-1.26,1.2-2.19.78s-.94-1.29-.63-2.1c.87-2.28-.49-3.78-1.78-5.32-2.86-3.44-5.84-6.79-8.52-10.36-1.4-1.86-3-3-5-1.78-2.14,1.35.69,2.29.9,3.57.52,3.2-.46,5-3.72,5.56-4.91.76-5.32,1.48-2.63,5.66,2,3.06,4.19,5.95,6.43,8.81.76,1,1.53,2.3,3.18,2,1-.21,2.3-1.57,3.06-.08s-.89,2.28-1.89,3c-2.77,2.11-5.59,4.15-8.41,6.19-.93.67-1.93,1.65-3.12.86S529.8,632.21,530,631.3Z" fill="#2b2b2b"/><path d="M473.6,637c1.76-1.84,2.91-3.5,4.46-4.58,4.38-3,9.16-2.13,12,2.4,2.19,3.49,3.93,7.27,5.79,11,.91,1.8,1.8,3.58,3.89,4.22.9.28,2.15,0,2.32,1.31s-.94,2-2,2.49q-11.78,5.64-23.56,11.26c-1.18.56-2.49,1.61-3.7.68-2-1.53.76-1.95,1-3a5.92,5.92,0,0,0-.4-3.84c-3.91-8.37-7.76-16.77-11.68-25.13-.4-.87-.92-2.07-1.67-2.35-6.37-2.36-1.38-3.51.58-4.34,7.49-3.17,5.71-4.43,9.94,3.55C471.54,632.53,472.39,634.49,473.6,637Zm13.56,21.42c2.39-.48,3.29-2.53,2.09-5.32-1.94-4.49-4.11-8.88-6.42-13.18-.9-1.67-2.33-3.6-4.71-2.29a4.38,4.38,0,0,0-2.09,5.57c2,4.68,4.37,9.16,6.61,13.71C483.39,658.48,484.92,658,487.16,658.45Z" fill="#292829"/><path d="M44,406.72c.14,1.64-.84,3.8,1.42,5.5,1.34,1,.42,2-1,2.4a30.93,30.93,0,0,1-10.2,1.87c-.79,0-1.8.17-2-.91s.62-1.42,1.27-1.91a47.81,47.81,0,0,0,5.49-4.22c2.29-2.35,2.56-5.32,1.28-8.31-.9-2.11-2.84-2.72-4.94-2.69-3.26.06-4.46,2.49-5.39,5.06-1.12,3.11-2,6.29-3.16,9.4-2.54,7-6.89,10.07-13.34,9.47-6.11-.56-10.71-5.33-11.63-12.25a53.1,53.1,0,0,1-.23-6.44c0-1.16.6-2.61.1-3.44-5.1-8.49,3.21-5.53,5.83-6.25,2.16-.6,6.05-2.69,7.19.14,1.24,3.06-3.29,2.68-5,4.19-3.43,3-6.29,6-5,11,.7,2.74,2.07,4.95,5.19,5.2,2.95.23,5.09-.95,6.08-3.93s2-5.95,3.14-8.89c3.15-8.48,7.81-11.55,15.27-10.11C40.69,392.8,44.08,398,44,406.72Z" fill="#2e2e2d"/><path d="M58.72,494.71c4.26-2,9.75-2.13,8.71-9.82,4.15,3.36,5.22,7.42,6.87,11,.68,1.46-1.53,1.94-2.56,2.51-8,4.37-16,8.59-24,12.92-1.68.91-3.86,1.32-4.42,3.62-.26,1,.79,2.59-.74,3.05s-2.33-1.05-3-2.15c-1.74-3-5.61-4.87-5-9.23.08-.53-.81-1.4-1.45-1.8-4.24-2.73-4.52-7-3.46-11,1.78-6.7,7.4-9.41,13.6-10.85,5.3-1.23,9.76.46,13.31,4.61C58.35,489.52,58.57,492,58.72,494.71Zm-24.15,5.37c-.09,3.62,3.07,6.36,6.5,5a113.35,113.35,0,0,0,12.58-6.38c2-1.11,2.33-3.25,1.79-5.23s-2.13-3-4.45-3.1c-6.26-.29-10.89,2.94-15.4,6.6C34.53,497.82,34.54,498.92,34.57,500.08Z" fill="#2a2929"/><path d="M176.89,646.4a4.18,4.18,0,0,1,1,0c1.88.46,5-2.14,5.48.78s-3.11,2.83-5.24,3.26c-11.3,2.3-23.75-6.46-25.27-17.68-1.58-11.61,8.82-24.32,20.39-25A20.44,20.44,0,0,1,190.87,615c1.39,1.6,2.22,4,5.53,2.67,2.17-.83,2.06,1.45,1.38,2.88-1.35,2.84-2.86,5.6-4.3,8.4-.53,1-.95,2.43-2.42,1.94-1.2-.4-1.53-1.89-1.43-2.92a18.22,18.22,0,0,0-.33-7.35c-2.54-8.56-9.64-10.51-16.17-4.47a36.31,36.31,0,0,0-10.27,15.58c-2.79,8.71,2,15,11,14.74,1,0,2,0,3,0Z" fill="#2e2e2d"/><path d="M115.72,590.26c1.07,1.77,2.13.17,2.86-.23,9.13-5,13.35-4.24,19.62,4.41,1.59-3.84,7.83-5,4.51-11-.74-1.35,1.33-1.6,2.32-.86,2.38,1.78,4.67,3.7,6.89,5.68s0,3.4-.95,4.6c-5.79,7.68-11.75,15.22-17.66,22.81-.8,1-1.95,1.86-1.65,3.42.19,1,1.79,2,.34,3s-2.45-.32-3.63-.83c-5.16-2.25-8.6-6.88-13.63-9.53s-5.33-10.08-1.8-16c1.08-1.79,3.82-2.8,3-5.62Zm19.66,7.37c.12-4-2.71-5.93-6.7-4.23a20.69,20.69,0,0,0-10.93,11.48c-1.72,4.13,1.16,7.67,5.16,6.94C126.71,611.13,135.26,601.4,135.38,597.63Z" fill="#2a2929"/><path d="M376.67,690.91c5.56-4.81,5.65-11.23,7.22-16.92,2.06-7.48,3.39-15.15,5-22.75.27-1.26.13-2.9,1.79-3.15s2.23,1.3,2.93,2.33c5.56,8.22,11,16.55,16.59,24.71,1.94,2.79,3.81,5.89,7.39,7,.93.29,1.5.68,1.38,1.65s-.92,1.26-1.76,1.44c-5.64,1.2-11.27,2.44-16.92,3.57a2,2,0,0,1-1.61-.83c-.63-1,.43-1.36,1-1.75,1.45-.94,4.42-.9,2.39-3.94-1.56-2.33-2.19-5.87-6.43-4.56a17.42,17.42,0,0,1-5.81,1.13c-4.15-.2-3.79,2.93-4.29,5.35-.54,2.62.46,4.17,3.41,3.91a1.15,1.15,0,0,1,1.35,1.13c0,1-.75,1.43-1.6,1.58A31.39,31.39,0,0,1,376.67,690.91Zm12.38-14.77c3,0,6.34-.25,7.69-1.9,1.72-2.09-1.35-4.34-2.34-6.51-.54-1.19-1.53-2.17-2.15-3.33a2.24,2.24,0,0,0-2.36-1.4c-1.31.17-1.21,1.5-1.41,2.32-.63,2.54-.87,5.18-1.53,7.71C386.35,675.38,386.67,676.64,389.05,676.14Z" fill="#2e2e2d"/><path d="M15.83,466.32c.22-5,2.88-7.42,6.5-8.74,3.41-1.24,7-2,10.48-3,1.76-.49,4-.78,4.79-2.36,3.43-6.65,4-.91,4.88,1.17,2.45,6.14,2.06,6.79-4.3,9.14-4.18,1.55-8.4,3-12.58,4.53-1.82.68-3.41,1.75-2.22,4.06,1,1.93,2.54,3,4.87,2.13,4.14-1.62,8.3-3.2,12.42-4.86a11.89,11.89,0,0,0,2.53-1.52c1.08-.79-.47-3.64,2-3.12,1.71.36,2,2.42,2.55,3.95,2.61,6.9,2.59,6.94-4.1,9.64-4,1.61-7.95,3.27-11.95,4.85a5.15,5.15,0,0,0-3.07,2.33c-.51,1,.86,3.18-1.38,2.93-1-.11-2.14-1.57-2.69-2.68C21.49,478.45,18.54,472.06,15.83,466.32Z" fill="#2a2929"/><path d="M441.23,679c-2.83-1.5-3.61.3-4.71,1-7.28,4.8-12.71,3.06-15.27-5.18-1-3.3-1.52-6.78-2.37-10.14-.4-1.59-.72-3.38-1.67-4.6-2.77-3.53-2.74-3.84,1.93-4.95,6.41-1.53,6.36-1.51,8.08,5.21q1.66,6.5,3.63,12.92c.55,1.79,1.6,3.66,3.91,2.81,2.1-.77,3.77-2.33,3-5q-2-6.92-4.32-13.73a4.64,4.64,0,0,0-1.88-2.15c-.87-.56-2.71.17-2.74-1.45s1.77-1.77,2.93-2.25c8.33-3.43,8.36-3.42,11.31,5,1.35,3.89,2.57,7.82,3.92,11.71.31.92.73,2.3,1.4,2.51,9.78,3-.29,4.61-.74,4.8C445.2,676.57,443.48,679.64,441.23,679Z" fill="#2b2b2b"/><path d="M328,693.79c3.79-6.63,3.06-13.55,2.88-20.33,0-1.26-.27-3.46-2.74-3.35-2.12.09-4.1,1.54-3.91,3.07.79,6.35-3.83,12.89.7,19.05.66.89.11,1.85-.77,1.75-4.26-.49-8.62.61-12.84-.82-1.27-.43-1.83-1.42-.8-2,4.36-2.56,3.39-6.9,3.48-10.61.12-4.58,2.18-9.48-1.45-13.79-.58-.68.44-1.41,1.35-1.49s1.66,0,2.49-.09c4.82-.28,9.3,1.92,14.54.31,5-1.54,8.28,2.06,8.8,7.52a47.14,47.14,0,0,1-.33,9.92c-.37,3.12-1.34,6.74,2.51,8.83.56.31,1.14.94.72,1.62a3.46,3.46,0,0,1-3.42,1.58C335.6,694.62,332,694.21,328,693.79Z" fill="#2b2b2b"/><path d="M22.41,436.46c2.09-1.24,2.35,1,3.13,1.82,2.57,2.82,4.92,0,7.28-.27,2-.23,1.75-2.41,1.8-4.08a3.11,3.11,0,0,0-1.89-3.17,2.41,2.41,0,0,0-3.1.84c-1.11,1.32-1.83,2.35-3.9.89a4.68,4.68,0,0,1-2.07-5.06c.24-2,1.66-2.79,3.42-3,3.11-.44,5.47,1,7.33,3.3,7,8.71,3.77,18.25-6.89,21.3-3.86,1.1-9.21,0-10.65,5.92-.21.84-1.72.28-2.65-.21-2.27-1.21-4.1-3.51-3.57-5.53,1.18-4.47-1.11-7.39-2.87-10.92-1.55-3.09-1.94-7,.69-9.84a6.47,6.47,0,0,1,8.26-1.24c3.47,2,6.89,4.42,5.83,9.41a13.36,13.36,0,0,0-7.18-1.1c-2.84.48-3.77,2.69-2.52,4.77,2.35,3.9,6,2.32,9.26,1.2C26,440.11,22.8,438.16,22.41,436.46Z" fill="#2b2b2b"/><path d="M560.85,575.3c0-2.37,7.36-11.86,9.42-12.09a1.7,1.7,0,0,1,1.28.43c4.79,5.65,4.79,5.66,9.74,6.53-.43-6.62-3-9.49-8.46-9,.73-3.58,3.19-5.49,6.13-7.56,2.81,10.05,9.13,18,13.21,27.06,1.62,3.6,3.8,7,3.59,11.21a8.74,8.74,0,0,1-5.14,7.89,5.14,5.14,0,0,1-6.39-1.17c-1.59-1.66-1.16-3.76,0-5.51,1.33-2,3.22-2.8,5.59-1.58a7.93,7.93,0,0,0,1.64.34c.55-4.85-1.16-7.95-5.74-9.59-6.21-2.23-12.38-4.6-18.51-7.06-2.24-.89-4.32-1.22-6.48,0Z" fill="#2e2e2d"/><path d="M523.78,632.78a14.23,14.23,0,0,1-13.57,14.28c-7.63.23-15.34-7.76-15.41-15.95a13.54,13.54,0,0,1,13.66-14C516.7,617.05,523.76,624.28,523.78,632.78Zm-10,10.35c2.79.22,4.55-1.07,4.75-3.84.28-3.82-8.4-16.63-12-18.19-1.49-.66-2.81-1-4.18.09-1.53,1.16-1.55,2.57-1.19,4.41,1.23,6.27,5.18,11,8.57,16.08A3.91,3.91,0,0,0,513.77,643.13Z" fill="#2b2b2b"/><path d="M247,682.36a9.49,9.49,0,0,1-6.34-1.81,29,29,0,0,1-2.9-1.9c-1.31-1.16-3.83,1.84-4.13-.81-.35-3.1,1.07-6.1,2.62-8.84a1.43,1.43,0,0,1,1.19-.63c1.26.33,1.08,1.46,1.09,2.42a7.57,7.57,0,0,0,5.25,7.62c1.44.55,2.92,1,3.94-.71a3.15,3.15,0,0,0-.3-4.11c-1.83-1.92-3.67-3.86-5.63-5.64-3.67-3.33-4-7.47-1.73-11.28s6.32-4.94,10.88-3.92c2.59.57,4.71,2.15,7.44,2.58s.84,3,.61,4.5-.12,3.93-2.43,4.41c-.93.19-1.3-.8-1.27-1.73a5.78,5.78,0,0,0-.93-3.28c-1.1-1.81-2.38-3.23-4.69-3.08a2.38,2.38,0,0,0-2.31,1.61c-.63,2.21.58,3.73,2.1,5.2,2.89,2.8,7,4.64,7.1,9.63C256.63,678.62,253.2,682.35,247,682.36Z" fill="#2e2e2d"/><path d="M115.72,590.26l.2-.12c-4.33.46-5.38-3.82-8.14-5.62-1.44-.94-2.36-3.56-4.22-2.74-2.37,1-3.16,3.61-3.2,6.26,0,2.25.08,4.4,2.68,5.25a28.86,28.86,0,0,0,3.34.76c1.18.24,3.09-.4,3,1.61-.11,1.77-2,1.4-3.2,1.57-5.19.72-10.53-1.71-12.78-5.77-3.07-5.53-2.58-11,1.83-16.06a17.25,17.25,0,0,1,12.44-6.29,10.8,10.8,0,0,1,10.74,5.73c2.3,4,2.35,8.14-.57,12C117,587.94,116.41,589.13,115.72,590.26Zm-4.12-16.93c-2.23.43-5.49,1.4-5.83,4.64-.28,2.65,2.39,5.18,5,5.11,3.56-.09,4.9-3.48,5.43-6.58C116.61,573.85,114.65,573.2,111.6,573.33Z" fill="#2b2b2b"/><path d="M284.85,679c.29-10.24,6.68-16.83,15.43-15.92,6.06.64,10.77,7.75,9.16,13.6-.45,1.65-1.48,1.59-2.61,1.48-2.79-.26-5.59-.57-8.36-1-2.44-.37-3.5.21-3.57,3C294.76,685,300,690.28,305,686c1-.88,2.48-1.77,3.51-.45s-.53,2.29-1.43,3.16c-4.2,4.08-9.83,5.3-14.59,3.18A13.54,13.54,0,0,1,284.85,679Zm18-9.35c-.45-1.1.84-4.85-3.74-4.52-4.33.3-4.44,4.16-4.76,6.87-.45,3.67,3.05,2.75,5.27,3.1C303.14,675.67,303.37,673.53,302.87,669.67Z" fill="#2b2b2b"/><path d="M269.08,674.08c-.1,2.24-.17,4.81,1.27,7,2,3,4.58,4.14,8.08,2.17,1-.56,2.63-1.94,3.48-.36s-.94,2.53-2.14,3.4c-4.44,3.2-9,3.71-14,1s-7.66-7.28-7.29-12.64c.63-9.17,6.63-17.41,18.15-15.45,3.66.62,7.16,2,7.73,6.5.23,1.85.29,3.68-1.68,4.78a5.14,5.14,0,0,1-4.78.28c-2.05-.95-1.94-2.83-1.76-4.72.11-1.19,1.24-2.73-.54-3.49s-3.13.49-4.2,1.81C269.2,667.15,269.08,670.47,269.08,674.08Z" fill="#2b2b2b"/><path d="M470.25,663.33c-.59,4.6-3.31,7.27-7.85,8.23-4,.86-6.68-.84-8.08-4.6-1.56-4.18-2.95-8.42-4.6-12.56-.67-1.66-.74-3.87-3.67-3.91-1.88,0-1.27-2.08-.91-3.2,1.16-3.6,2.55-7.12,3.79-10.7.34-1,.77-1.89,1.89-2s1.18,1,1.56,1.67c1.6,2.93,1.46,8.07,7.28,5.72.22-.1,1,.71,1.24,1.23a1.67,1.67,0,0,1-1.23,2.32c-3.19.85-2.45,2.85-1.59,5,1.62,4,3.06,8,4.84,11.91,1.12,2.44,2.71,3.74,4.15,0,.38-1,.58-2.54,2.25-1.9C470.49,661,470,662.3,470.25,663.33Z" fill="#2e2e2d"/><path d="M560.71,575.16c0,.49.2,1.16,0,1.46-4.21,5.13.27,7.82,3.06,10.93,1.33,1.48,2.81,2.82,4.21,4.24,2.38,2.4,4.75,4.89,5.49-1.09.08-.65.36-1.28,1.19-1.32s1,.71,1.32,1.25c1.87,3.12.44,8.44-3.05,11.09s-6.87,2.17-9.79-.85c-3.11-3.2-6-6.58-9-10-1.27-1.47-2-3.41-4.66-2.78-1.82.43-2.06-1.26-2.12-2.62-.16-3.8.25-7.61-.51-11.41-.37-1.83,1.49-2.87,2.23-1.67,3.13,5,7.24,4.46,11.77,2.86Z" fill="#2a2929"/><path d="M354,695c-4.16-.65-6.84-2.71-7-7.1s0-8.63-.06-12.95c-.05-2.12.94-4.62-2.43-5.58-1.46-.42-.63-2,.07-2.93,2.38-3.16,4.86-6.25,7.25-9.41A2.14,2.14,0,0,1,354,656c1.4.19,1.06,1.39,1.19,2.32a43.42,43.42,0,0,1,.69,4.9c.05,1.89.46,2.65,2.56,2,1.28-.36,2.68,0,2.76,1.88s-1.17,2-2.6,2.06c-1.1,0-2.72-.34-2.56,1.41.49,5.43-.77,11,1,16.31.87,2.62,2.06,2.79,3.66.58.59-.79,1.17-1.87,2.33-1.17,1.32.79.73,2,.29,3.09C361.56,693.58,357.71,694.19,354,695Z" fill="#292829"/><path d="M101.14,89.79c3.4,2.4,6.46,4.42,8.89,8.08,3.42,5.17,8.42,9.28,12.61,13.95,4.38,4.9,7.16,10.5,7.1,16.46l-20.61-19.13c-1-.9-1.84-1.92-2.81-2.81C99.72,100.32,99.44,99.46,101.14,89.79Z" fill="#2b2b2b"/><path d="M287.82,53a339.5,339.5,0,0,0-7.66-38.73C279,9.7,283.24,7,285.28,3.53c.5-.83,1.49-.43,1.84.57.94,2.64,3.05,5.55,2.54,7.89-1.37,6.39,2,11.9,2.21,17.94C292.07,37.45,293.23,45,287.82,53Z" fill="#2e2e2d"/><path d="M484,30.38c-.09,4.28-.5,8.07-3.47,11.49s-3.53,8.47-5.38,12.7c-3.38,7.73-7.69,14.53-16.4,19,4.07-10.17,8.56-19.15,11.43-28.74a14.11,14.11,0,0,0,.75-2.34C471.78,34.87,477.05,32,484,30.38Z" fill="#2b2b2b"/><path d="M24.63,264.45c6.47.43,10.55,3.9,14.75,7.14,1.17.9.77,2,.47,3.12-.78,3-1.26,6.17-2.24,9.14-.59,1.77.62,5.59-3.26,4.51-3.17-.88-7.14-1.88-5.72-6.94.49-1.74.8-3.54,1.22-5.3.3-1.22,1.51-2.55.12-3.62a3.91,3.91,0,0,0-4.25-.09A14.41,14.41,0,0,0,22,274.78c-2.67,2.66-4.52,1.85-6.92-.63-3.11-3.23.19-4.25,1.59-5.81A11.24,11.24,0,0,1,24.63,264.45Z" fill="#292829"/><path d="M64,505.92a25.51,25.51,0,0,1,2.82,2.28c6.05,8.12,6,8.52-2.63,13.62-3.11,1.85-6.2,3.74-9.29,5.64-2.25,1.39-4.55,2.76-4.28,7-4.42-4.06-6.15-8.55-8.55-12.53-1-1.57.22-2.37,1.57-1.78,3.18,1.39,5.39-.56,7.78-1.9,3.31-1.86,6.61-3.76,9.85-5.73C63.25,511.34,65.48,510.26,64,505.92Z" fill="#2b2b2b"/><path d="M334.11,505.57c-.18.86-.58,1.66-1.52,1.72-6.25.42-12.53.58-18.32-2.2-1.48-.71-2.6-2.53-3.46-4.07-1.91-3.45-5.43-4.32-8.63-5.37-4.1-1.34-5.86,2.47-7.84,4.84a5.21,5.21,0,0,0,.18,7.24c5.2,5.95,11.17,10.4,19.55,9.55,2.79-.28,4.39,2.05,7,2.09,4.52.06,8.49-2.13,12.82-2.86a18.25,18.25,0,0,0,10.41-5.84c1.42-1.53,3.28-1.37,5.13-1.15-8.92,9.58-20.26,11.71-32.62,10.47-3.62-.37-7.19-1.14-10.78-1.75a19.5,19.5,0,0,1-12-7.3c-3.81-4.61-3.81-9.59-.12-14,3.06-3.62,8.93-4.33,13.57-1.47a23.25,23.25,0,0,1,5,4C318.48,506.05,325.73,507.76,334.11,505.57Z" fill="#b08e47"/><path d="M498.84,569.47c-.63-1.73-.32-2.88,1.31-4.17,7.51-6,15.48-11.4,21.94-18.63,1.53-1.7,4.61-1.8,5.31-5.08-4.65-.52-7.19,5-11.72,3.66l26.68-18.41C541.72,533.25,512.53,561.5,498.84,569.47Z" fill="#a04445"/><path d="M535,88.09c2.23-2,3.92-2.9,4-5.59.08-3.63,3.53-4.37,6.42-5.18,3.06-.85,5.55.4,7.72,2.37a2.18,2.18,0,0,1,.32,3.15,3.06,3.06,0,0,1-3.57,1.07,28.45,28.45,0,0,1-2.93-1.83c-.66-.36-1.45-1.14-2.16-.22-.6.77-.18,1.59.41,2.2.8.84,1.7,1.57,2.51,2.4s2.92,1.17,1.69,2.89c-.68,1-2.07,2-3.45,1.34C542.73,89.16,539.16,89.29,535,88.09Z" fill="#302f2f"/><path d="M526.92,66.13c-.54,0-.71,0-.87,0-2.09-.1-9.35-6-9.85-8.14-.33-1.42-1.75-3.28,1-3.91,2-.45,4.27-1.69,5.51,1.15.49,1.12.77,2.26,2.29,2,5.41-.89,4.63,3.76,5.29,6.46C530.86,66.1,528.19,65.86,526.92,66.13Z" fill="#302f2f"/><path d="M374,297.6q0,48,0,96c0,.83,0,1.66,0,2.49,0,.12-.18.22-.27.34l-.74-.93c-.05-1.06.21-2.23-.86-3,0-3.32,0-6.65,0-10,1.27-1.2.86-2.77.86-4.21q0-33.74,0-67.48c0-1.44.41-3-.87-4.21v-9Z" fill="#1f9c4f"/><path d="M372.14,392.55c1.07.77.81,1.94.86,3-2.72,2.95-6,3.88-10.06,4.11-5.6.32-11.05-1.11-16.71-.4-4.88.61-4.44,1.94-1.91,4.85.2.23-.15.93-.25,1.41-1.43-1.35-3-2.59-4.25-4.06-.9-1-3-1.9-2-3.5.69-1.15,2.58-1.27,4.12-1.26,8.13,0,16.25-.11,24.37.11C369.62,396.9,371.71,396.05,372.14,392.55Z" fill="#52a871"/><path d="M350.2,508.74c-.31-3.06.62-3.87,3.68-2.58,5,2.1,6.74,7.65,11.68,10,3.48,1.65,6.68,1.14,10,.93,2-.12,1.49-2.29,1.43-3.66-.09-2.11-.48-4.21-.75-6.31,3.64,1.29,5.3,3.82,4.35,7.62-1,4.14-4.47,5.08-8,5.08-6.87,0-12.31-3.19-16.36-8.6C354.58,509.05,353.14,507.3,350.2,508.74Z" fill="#b08e47"/><path d="M545,135.94c-.43,2.79.48,4.95-2.22,5-1.85,0-4.23.83-4.45-2.35-.1-1.53-1.2-1.55-2.42-1.84-4-.91-2.35-4.26-2.24-6.49.15-3,3.07-1.42,4.74-1.93C539.24,132.24,545.86,132,545,135.94Z" fill="#302f2f"/><path d="M526.56,170c1.17-.36,2.87.6,3.47-.92.5-1.24-1-1.87-1.73-2.64-1.22-1.34-2.49-2.56-2.55-4.52,8,6.54,14.38,14.56,20.31,23.19Z" fill="#a04445"/><path d="M341.94,473.51c-2.79-.13-5.76-.75-6.9,3-1,3.3-1.83,6.22.76,9.62,2.16,2.84,4,5.75,6.85,8.08a5,5,0,0,1,1.26,6.68c-1.34,2.32-2.84,3.05-5.24,1.92,4.89-5,4.93-5-.52-9.7-4.77-4.08-7-9.13-5.91-15.37.94-5.3,4.83-7.11,9.79-4.8A5.4,5.4,0,0,1,341.94,473.51Z" fill="#b08e47"/><path d="M159.19,553.4c5.87-1.73,7.26,4.19,10.47,6.6,5.85,4.41,11.63,9,17.47,13.41,1.4,1.07,3.14,1.9,3.19,4A167.71,167.71,0,0,1,159.19,553.4Z" fill="#a04445"/><path d="M49.63,320.46l0-.39c1.28-1.1,2.87-2.5,1.83-4.13-2-3.05.15-4,2.12-5.17,1-.59,2-1.81,3.43-.36,1.69,1.72,2.69,3.6,1,5.63-1.53,1.82,1.47,3,.08,5C55.39,324.66,52.35,324.6,49.63,320.46Z" fill="#2a2929"/><path d="M76.88,513.51c-3.13,0-5.11-1.63-5.19-4.73s2.26-4.83,5.13-5c2.71-.17,5.17,1.3,5.21,4.21S80.51,513.39,76.88,513.51Z" fill="#302f2f"/><path d="M538.85,585.51c.38,3.07-.71,5.08-3.89,5-3.37,0-5-2.17-5.16-5.37s1.63-4.69,4.51-4.58S539.41,582.08,538.85,585.51Z" fill="#302f2f"/><path d="M372.13,306.68c1.28,1.2.87,2.77.87,4.21q0,33.75,0,67.48c0,1.44.41,3-.86,4.21q-.15-34.49-.28-69C371.84,311.3,372,309,372.13,306.68Z" fill="#52a871"/><path d="M414.9,503.4c1.6,2.1,1.07,4-.64,5.68a3.47,3.47,0,0,1-4.94.09c-3.92-3.71-7.4-1.05-10.57.73s-1.11,5-.92,7.63c-4.17-2.38-3.72-5.34-.94-8.44,3.59-4,7.64-4.75,12.36-2.35,4.21,2.14,4.7,1.8,4.78-3.36Z" fill="#b59554"/><path d="M445.93,259.77c-6.36-1.4-.69-4.92-1.86-7.6,6,2.82,7.8,2.4,9-1.73a5.32,5.32,0,0,1,1.87,3.33c.38,1.68,1.84,3.6.1,5-1.51,1.2-2.37-1.15-3.66-1.55C448.87,256.42,445.75,254.69,445.93,259.77Z" fill="#52a871"/><path d="M376.27,507.14c-3.61-.71-6.45,1.8-9.77,2.39-2.38.42-4.82.91-6.15-1.31-1.56-2.58-.54-5,2-6.67-.17,1.13-.34,2.26-.49,3.4a3.08,3.08,0,0,0,1.44,3.38c1.26.66,2-.54,2.9-1.21C369.53,504.67,372.92,504,376.27,507.14Z" fill="#b08e47"/><path d="M366.7,457.59c4.89,1,10.09,10.27,8.16,14.47-.84,1.83-2.45,1.22-3.83,1.38,3.34-3.62,3.21-7-.36-10.49C369.1,461.42,367.13,460,366.7,457.59Z" fill="#b08e47"/><path d="M341.94,473.51a5.4,5.4,0,0,0,.09-.58c5.19,4.17,6,7.95,2.61,13.35a5,5,0,0,0-.82,3.21c-1.76-.39-2.29-2-1.38-2.93,3.69-3.74,2.84-7.1-.16-10.66C341.84,475.38,342,474.32,341.94,473.51Z" fill="#b59554"/><path d="M374,297.6l-1.85.11a10.9,10.9,0,0,1-.76-2.28c-.62-6-.63-6-6.27-3.63.6-6.25,4.83-3.12,7.88-3,.4,2.34-.85,4.92,1,7.05C374,296.41,374,297,374,297.6Z" fill="#52a871"/><path d="M393,483.43c5.25,2.15,10.69,4.06,12.77,10.19A47.17,47.17,0,0,1,393,483.43Z" fill="#b08e47"/><path d="M515.72,545.22c-3.64,4.66-7.57,8.82-14.28,8A96.5,96.5,0,0,1,515.72,545.22Z" fill="#a04445"/><path d="M413.87,481.46c-5.82.36-7.76-3.46-8.83-8.21C408.68,475.24,411,478.65,413.87,481.46Z" fill="#b59554"/><path d="M356.76,447.77c3.77-.1,8.31,4.35,9.15,9Z" fill="#b08e47"/><path d="M414.9,503.4l-.87,0c-1.85-4-5.49-6.55-8.28-9.79C411.56,494.29,413.78,498.33,414.9,503.4Z" fill="#b08e47"/><path d="M430,490.69c-.34,2.39-.77,4-3.23,1.16-.6-.7-2.44-.42-3.72-.46-2.92-.09-4.3-1.35-3.53-4.38A12.73,12.73,0,0,0,430,490.69Z" fill="#b59554"/><path d="M430,480.43a22.39,22.39,0,0,0,2.2,3.74c2.88,3.27,2,5.24-1.93,6.35a3.84,3.84,0,0,0,.27-4.91A6.37,6.37,0,0,1,430,480.43Z" fill="#b59554"/><path d="M370,474.37c-1.34,3.41-3,6.49-7.27,6.73C364.55,478.2,367.26,476.27,370,474.37Z" fill="#b08e47"/><path d="M358.73,485.09c.45,4.22-3.2,4.72-5.69,6.28l1-2Z" fill="#b08e47"/><path d="M349.93,441.53c3.14-.27,5.3.53,4.68,4.33C352.87,444.61,350.64,443.89,349.93,441.53Z" fill="#b08e47"/><path d="M354.05,489.38l-1,2-2,.09c-1.56.15-3.6-.73-4,1.87-2.23.18-1-2.09-2-2.8C348.11,490.65,351.17,490.7,354.05,489.38Z" fill="#b59554"/><path d="M441.11,473.34l-7.33,0C436.24,470.53,438.68,470.9,441.11,473.34Z" fill="#b59554"/><path d="M389,480.18c3.83-2,3.16,1.5,4,3.22C391.15,482.94,390.12,481.53,389,480.18Z" fill="#b08e47"/><path d="M362.73,481.09c.06,2.72-.57,4.76-4,4A12.11,12.11,0,0,1,362.73,481.09Z" fill="#b08e47"/><path d="M383.06,483.5c.59-1.93.15-5.11,3.89-3.22A9.9,9.9,0,0,1,383.06,483.5Z" fill="#b08e47"/><path d="M433.79,473.27c-.18,2-.45,3.84-3,4.08C431,475.42,431.38,473.59,433.79,473.27Z" fill="#b59554"/><path d="M417.36,484.85c-3.62,1.41-3.33-1.18-3.45-3.36A7.21,7.21,0,0,1,417.36,484.85Z" fill="#b59554"/><path d="M397.81,517.52c1.69,0,3.77-.89,4.13,1.93C400.35,519.27,398.62,519.39,397.81,517.52Z" fill="#b59554"/><path d="M362.3,501.61c-.08-2.2.34-4,3.11-4.07Z" fill="#b08e47"/><path d="M338.49,502.9c.76,3.65-2.06,2.06-3.55,2.42Z" fill="#b08e47"/><path d="M377.89,488.05c0-2.09,1.12-2.87,3.09-2.65A5.39,5.39,0,0,1,377.89,488.05Z" fill="#b08e47"/><path d="M381,485.38a1.78,1.78,0,0,1,2.09-1.91A2.3,2.3,0,0,1,381,485.38Z" fill="#b08e47"/><path d="M419.36,486.8c-1.88.7-2.4,0-1.85-1.81Z" fill="#b59554"/><path d="M354.65,445.92c1.71-.52,2.36.17,2.12,1.86A2.38,2.38,0,0,1,354.65,445.92Z" fill="#b08e47"/><path d="M376,489.41l1.53-1.15A1.51,1.51,0,0,1,376,489.41Z" fill="#b08e47"/><path d="M430.83,477.31c-.16.36-.33.72-.5,1.08C430.5,478,430.67,477.67,430.83,477.31Z" fill="#b59554"/><path d="M344.87,490.46l-.85-.71Z" fill="#b59554"/><path d="M374,295.81c-1.87-2.13-.62-4.71-1-7.05C375,290.87,373.65,293.46,374,295.81Z" fill="#1f9c4f"/><path d="M326.14,256.81l.44-.65.23.39-.76.16Z" fill="#fefefe"/><path d="M347,493.33c.43-2.6,2.47-1.72,4-1.87C350.24,493.2,348.78,493.55,347,493.33Z" fill="#b08e47"/></g></g></svg>