<svg xmlns="http://www.w3.org/2000/svg" viewBox="0 0 62.28 57.7"><g id="Layer_2" data-name="Layer 2"><g id="Layer_1-2" data-name="Layer 1"><g id="Group_31" data-name="Group 31"><rect id="Rectangle_10" data-name="Rectangle 10" y="19.43" width="62.28" height="38.27" fill="#ff8080"/><path id="Path_137" data-name="Path 137" d="M30.9,0c-5-.08-10.28,2.65-12.76,6.31s-1.81,8-1.23,11.94a.91.91,0,1,0,1.8-.26c-.57-4-1.07-7.67.95-10.65s6.91-5.58,11.21-5.51A13.13,13.13,0,0,1,41.1,7.48c1.87,2.89,1.74,6.14,1.59,9.66a.91.91,0,1,0,1.82.08c.16-3.52.35-7.29-1.88-10.74A14.75,14.75,0,0,0,30.9,0Z" fill="#ff8080"/><path id="Path_138" data-name="Path 138" d="M17.88,15.23a2.22,2.22,0,1,0,2.28,2.2A2.26,2.26,0,0,0,17.88,15.23Zm0,1.83a.4.4,0,1,1-.43.4.4.4,0,0,1,.43-.4Z" fill="#ff8080"/><path id="Path_139" data-name="Path 139" d="M43.68,15.18A2.22,2.22,0,1,0,46,17.38,2.26,2.26,0,0,0,43.68,15.18Zm0,1.83a.39.39,0,0,1,.35.43.39.39,0,0,1-.78,0,.4.4,0,0,1,.4-.4Z" fill="#ff8080"/><path id="Path_140" data-name="Path 140" d="M36.68,38.6l.08-9.12c.06-7.56-11.06-7.87-11.13-.09l-.07,9.13a0,0,0,0,0,0,0l11.06.08a0,0,0,0,0,0,0Z" fill="#fff"/><path id="Path_141" data-name="Path 141" d="M25.55,38.56l0,9.12c0,7.56,11.1,7.8,11.12,0l0-9.13a0,0,0,0,0,0,0l-11.06,0A0,0,0,0,0,25.55,38.56Z" fill="#fff"/><path id="Path_142" data-name="Path 142" d="M31.1,44.11l9.13.07c7.56.06,7.86-11.06.08-11.12L31.19,33s0,0,0,0h0l-.09,11.06A0,0,0,0,0,31.1,44.11Z" fill="#fff"/><path id="Path_143" data-name="Path 143" d="M31.14,33,22,33c-7.56,0-7.8,11.1,0,11.12l9.12,0a0,0,0,0,0,0,0l0-11.07S31.16,33,31.14,33Z" fill="#fff"/></g></g></g></svg>