<svg xmlns="http://www.w3.org/2000/svg" viewBox="0 0 53.89 50.61"><g id="Layer_2" data-name="Layer 2"><g id="Layer_1-2" data-name="Layer 1"><g id="Group_33" data-name="Group 33"><g id="Group_32" data-name="Group 32"><path id="Path_144" data-name="Path 144" d="M50.63,13.68a.59.59,0,0,0-.8-.22h0l-7.59,4.39,0,0A.59.59,0,0,0,42.26,19a.61.61,0,0,0,.51,0l7.65-4.42a.59.59,0,0,0,.22-.8Zm3.25,8.93a.58.58,0,0,0-.68-.48h0l-8.7,1.53a.59.59,0,0,0-.48.69h0a.59.59,0,0,0,.69.48l8.7-1.53a.59.59,0,0,0,.47-.69Zm-.48,8.81-8.7-1.53a.59.59,0,0,0-.2,1.17l8.7,1.54a.59.59,0,0,0,.66-.52.59.59,0,0,0-.46-.65ZM9.87,30.37a.61.61,0,0,0-.69-.48L.48,31.42a.59.59,0,0,0,.21,1.17l8.69-1.53a.61.61,0,0,0,.49-.69Zm-.49-6.71L.69,22.13a.59.59,0,0,0-.64.55.6.6,0,0,0,.43.62l8.7,1.53a.6.6,0,1,0,.36-1.14.45.45,0,0,0-.16,0Zm2.33-5.78L4.06,13.46a.61.61,0,0,0-.82.18.59.59,0,0,0,.18.82l.05,0,7.64,4.42a.6.6,0,1,0,.6-1Zm4.16-4.64L10.19,6.47a.6.6,0,1,0-1,.65.38.38,0,0,0,.09.12L15,14a.59.59,0,0,0,.91-.76Zm5.5-2.94-3-8.3a.59.59,0,0,0-.75-.35h0a.59.59,0,0,0-.36.76l3,8.3a.6.6,0,0,0,.75.38.59.59,0,0,0,.37-.75v0ZM27,0a.6.6,0,0,0-.6.6V9.43a.6.6,0,0,0,1.19,0h0V.59a.59.59,0,0,0-.6-.59Z" fill="#f23d3d"/><path id="Path_145" data-name="Path 145" d="M36.66,2.41l-2.83,7.76-.2.54a.59.59,0,0,1-.76.36.61.61,0,0,1-.36-.77l0-.07,3-8.22a.61.61,0,0,1,.77-.36.6.6,0,0,1,.35.76Z" fill="#e31313"/><path id="Path_146" data-name="Path 146" d="M44.6,7.24l-4.51,5.38L38.93,14a.6.6,0,0,1-.84.11.59.59,0,0,1-.11-.83l0,0,1.19-1.41,4.49-5.36a.61.61,0,0,1,.83-.18.6.6,0,0,1,.18.83.4.4,0,0,1-.1.12Z" fill="#e31313"/><path id="Path_147" data-name="Path 147" d="M41.59,27.33V41.91H12.29v-3.1a6.88,6.88,0,0,0,1.22,1.25c5,4,14.88,1,22-6.72a27.35,27.35,0,0,0,5.7-9.18A14.66,14.66,0,0,1,41.59,27.33Z" fill="#fd5c5c"/><path id="Path_148" data-name="Path 148" d="M45.83,44.66v1.8H8.05v-1.8a2.75,2.75,0,0,1,2.74-2.75h32.3a2.75,2.75,0,0,1,2.74,2.75Z" fill="#fff"/><path id="Path_149" data-name="Path 149" d="M49.74,47.89v2.72H4.14V47.89c0-.78.91-1.42,2-1.42H47.69C48.82,46.47,49.74,47.11,49.74,47.89Z" fill="#66b6e6"/><path id="Path_150" data-name="Path 150" d="M9.24,45.36c2.95-.15,5.9-.23,8.85-.29S24,45,26.94,45s5.9,0,8.85.08,5.9.14,8.85.29c-3,.16-5.9.24-8.85.3s-5.9.08-8.85.08-5.9,0-8.85-.08S12.19,45.52,9.24,45.36Z" fill="#dcdcdc"/><path id="Path_151" data-name="Path 151" d="M6.64,49.16c3.38-.15,6.76-.23,10.15-.29s6.77-.08,10.15-.08,6.77,0,10.16.08,6.76.14,10.15.29c-3.39.16-6.77.24-10.15.3s-6.77.08-10.16.08-6.77,0-10.15-.08S10,49.32,6.64,49.16Z" fill="#2e6d98"/></g><path id="Path_152" data-name="Path 152" d="M29.43,27.65C24,33.51,16.59,35.78,12.8,32.73a5.68,5.68,0,0,1-.51-.47V27.33c0-.4,0-.79.05-1.18A14.65,14.65,0,0,1,28.13,12.73a14.8,14.8,0,0,1,6.14,1.91C35.17,18.23,33.43,23.32,29.43,27.65Z" fill="#fd5c5c"/><path id="Path_153" data-name="Path 153" d="M41.24,24.16a27,27,0,0,1-5.7,9.18c-7.14,7.76-17,10.77-22,6.73a7.22,7.22,0,0,1-1.21-1.26V32.26a4.51,4.51,0,0,0,.51.47c3.79,3.05,11.23.78,16.62-5.07,4-4.34,5.75-9.43,4.84-13A14.61,14.61,0,0,1,41.24,24.16Z" fill="#ff8080"/><path id="Path_154" data-name="Path 154" d="M42.26,18.94a.58.58,0,0,1-.35-.75.61.61,0,0,1,.26-.31l.06,0A9.85,9.85,0,0,1,42.26,18.94Z" fill="red"/><path id="Path_155" data-name="Path 155" d="M23.39,23.17c-2.41,2.26-5.47,2.9-6.84,1.43s-.51-4.47,1.91-6.72S23.94,15,25.3,16.45,25.8,20.92,23.39,23.17Z" fill="#f23d3d"/><path id="Path_156" data-name="Path 156" d="M28,26.55c-1.11,1-2.44,1.42-3,.86s0-1.85,1.07-2.89,2.44-1.42,3-.86S29.09,25.51,28,26.55Z" fill="#f23d3d"/></g></g></g></svg>