<svg xmlns="http://www.w3.org/2000/svg" viewBox="0 0 91.75 61.77"><g id="Layer_2" data-name="Layer 2"><g id="Layer_1-2" data-name="Layer 1"><path id="Path_158" data-name="Path 158" d="M20.79,22.37A11.19,11.19,0,1,0,9.6,11.18,11.19,11.19,0,0,0,20.79,22.37Zm14,7.59A15.09,15.09,0,0,1,31.88,25a14.87,14.87,0,0,0-5.07-.89h-12A14.76,14.76,0,0,0,0,38.9H0V49.15A55.36,55.36,0,0,0,20.79,53h.61V47.72A18.49,18.49,0,0,1,34.83,30ZM71,22.37A11.19,11.19,0,1,0,59.78,11.18h0A11.19,11.19,0,0,0,71,22.37Zm6,1.77H65a14.93,14.93,0,0,0-5.08.89A14.66,14.66,0,0,1,56.92,30,18.51,18.51,0,0,1,70.36,47.72v5.22H71a55.34,55.34,0,0,0,20.78-3.8V38.9A14.76,14.76,0,0,0,77,24.14ZM35.87,25a11.25,11.25,0,0,0,4.93,5,11.8,11.8,0,0,0,2.65,1A11.2,11.2,0,1,0,35.87,25Zm16,8h-12A14.76,14.76,0,0,0,25.09,47.72V58a55.36,55.36,0,0,0,20.79,3.8A55.34,55.34,0,0,0,66.66,58V47.72A14.76,14.76,0,0,0,51.9,33Z" fill="#fff"/></g></g></svg>