<svg xmlns="http://www.w3.org/2000/svg" viewBox="0 0 91.8 61.81"><g id="Layer_2" data-name="Layer 2"><g id="Layer_1-2" data-name="Layer 1"><g id="Layer_2-2" data-name="Layer 2"><g id="Layer_1-2-2" data-name="Layer 1-2"><path id="Path_158" data-name="Path 158" d="M20.8,22.4A11.2,11.2,0,1,0,9.6,11.2,11.18,11.18,0,0,0,20.8,22.4Zm14,7.6a14,14,0,0,1-2.9-5,14.4,14.4,0,0,0-5.1-.9h-12A14.81,14.81,0,0,0,0,38.8v.1H0V49.1a54.79,54.79,0,0,0,20.8,3.8h.6V47.6A18.48,18.48,0,0,1,34.8,30ZM71,22.4A11.2,11.2,0,1,0,59.7,11.2h0A11.33,11.33,0,0,0,71,22.4Zm6,1.7H65a14.81,14.81,0,0,0-5.1.9,17.07,17.07,0,0,1-3,5A18.51,18.51,0,0,1,70.3,47.7v5.2H71a54.79,54.79,0,0,0,20.8-3.8V38.9A14.77,14.77,0,0,0,77,24.1ZM35.9,25a11.82,11.82,0,0,0,4.9,5,10.79,10.79,0,0,0,2.7,1,11.18,11.18,0,1,0-8.4-13.4A10,10,0,0,0,35.9,25Zm16,8h-12A14.81,14.81,0,0,0,25.1,47.7V58a54.79,54.79,0,0,0,20.8,3.8A55.14,55.14,0,0,0,66.7,58V47.7A14.87,14.87,0,0,0,51.9,33Z" fill="#66b6e6"/></g></g></g></g></svg>