<svg xmlns="http://www.w3.org/2000/svg" xmlns:xlink="http://www.w3.org/1999/xlink"
    viewBox="0 0 43.85 73.05">
    <defs>
        <linearGradient id="linear-gradient" x1="-253.35" y1="126.96" x2="-252.93" y2="126.78"
            gradientTransform="matrix(15.32, 0, 0, -23.56, 3903.73, 3002.48)"
            gradientUnits="userSpaceOnUse">
            <stop offset="0" stop-color="#ff2a2a" />
            <stop offset="0.51" stop-color="#f55" />
            <stop offset="1" stop-color="#ff2a2a" />
        </linearGradient>
    </defs>
    <g id="Layer_2" data-name="Layer 2">
        <g id="Layer_1-2" data-name="Layer 1">
            <g id="Group_30" data-name="Group 30">
                <path id="Path_48" data-name="Path 48"
                    d="M27.63,52.53h-.07l-3.63.79a.46.46,0,0,0-.31.49l.33,7a.39.39,0,0,0,.1.25l.07.1.09,0h.11l2.37.11v-.62l5.21-1.13c.19-.05.43-.32.32-.49L28,52.86C27.84,52.72,27.77,52.55,27.63,52.53Z"
                    fill="#c83737" />
                <path id="Path_49" data-name="Path 49"
                    d="M26.53,53.48l3.63-.79c.19,0,.26.17.38.34l4.27,6.13c.12.17-.12.45-.31.49L26.93,61.3a.33.33,0,0,1-.38-.27.16.16,0,0,1,0-.07l-.33-7A.46.46,0,0,1,26.53,53.48Z"
                    fill="#f55" />
                <path id="Path_50" data-name="Path 50"
                    d="M28.77,53.34a2.08,2.08,0,0,0-1.6,2.14,1.53,1.53,0,0,0,1.62,1.43,1.28,1.28,0,0,0,.27,0,2.08,2.08,0,0,0,1.6-2.14,1.52,1.52,0,0,0-1.61-1.43A1.26,1.26,0,0,0,28.77,53.34Zm.13,1.6a.14.14,0,0,1,.18.08s0,0,0,0a.18.18,0,0,1-.16.2.13.13,0,0,1-.17-.07.09.09,0,0,1,0,0,.18.18,0,0,1,.15-.2Z"
                    fill="#5df" />
                <path id="Path_51" data-name="Path 51"
                    d="M29.45,1.15a.3.3,0,0,0-.3.17L26.46,6.4l-.58-.23s-.12.08-.2.22l-8.55,16c-.08.14.48.52.52.53h0c0-.14,1,.49,2,.92s2.07.64,2,.75c.05,0,.71.17.78,0l1.7-3.49c.38.12.66.2.62.23s.53.13.57.05l4.29-8.91c0-.08,0-.15,0-.16L28.5,12l1.8-3.72c.07-.14.1-.26.06-.28l-.58-.23L32.4,2.81a.26.26,0,0,0-.08-.36h0L29.51,1.17Z"
                    fill="url(#linear-gradient)" />
                <path id="Path_52" data-name="Path 52"
                    d="M18.37,22.55l3.17,1.7a.18.18,0,0,1,.07.25L20.4,27a.17.17,0,0,1-.22.1h0L17,25.44a.2.2,0,0,1-.07-.26l1.21-2.53a.18.18,0,0,1,.23-.11Z"
                    fill="#5df" />
                <path id="Path_53" data-name="Path 53"
                    d="M24,17.33a4.17,4.17,0,0,1,3.35-4.15,3.06,3.06,0,0,1,3.6,2.4,2.42,2.42,0,0,1,.06.54,4.16,4.16,0,0,1-3.35,4.14,3.06,3.06,0,0,1-3.6-2.4A2.33,2.33,0,0,1,24,17.33Zm2.69-.47a.73.73,0,0,0,.68.76.47.47,0,0,0,.17,0,1,1,0,0,0,.78-1,.72.72,0,0,0-.69-.75h-.16a1,1,0,0,0-.78,1Z"
                    fill="#2ad4ff" />
                <path id="Path_54" data-name="Path 54"
                    d="M24.39,17.73a4.16,4.16,0,0,1,3.35-4.14A3.06,3.06,0,0,1,31.34,16a2.48,2.48,0,0,1,.06.54,4.17,4.17,0,0,1-3.35,4.15,3.06,3.06,0,0,1-3.6-2.4A2.48,2.48,0,0,1,24.39,17.73Zm2.69-.46a.72.72,0,0,0,.69.75.43.43,0,0,0,.16,0,1,1,0,0,0,.78-1,.71.71,0,0,0-.68-.75.47.47,0,0,0-.17,0,1,1,0,0,0-.78,1Z"
                    fill="#5df" />
                <path id="Path_55" data-name="Path 55" d="M12.29,47.55.22,51.84,12.46,57l11.45-4Z"
                    fill="#0cf" />
                <path id="Path_56" data-name="Path 56" d="M12.07,44.81,0,49.1l12.24,5.18,11.44-4Z"
                    fill="#5df" />
                <path id="Path_57" data-name="Path 57" d="M23.68,50.26,23.91,53,12.46,57l-.22-2.73Z"
                    fill="#2ad4ff" />
                <path id="Path_58" data-name="Path 58" d="M.07,49l.22,2.73L12.46,57l-.22-2.73Z"
                    fill="#2ad4ff" />
                <path id="Path_59" data-name="Path 59"
                    d="M14.66,51a3.44,3.44,0,0,1-2.17.92,4.67,4.67,0,0,1-2.56-.54c-1.57-.87-2-2.44-.95-3.51a3.36,3.36,0,0,1,2.16-.92,4.64,4.64,0,0,1,2.56.54,2.86,2.86,0,0,1,1.46,1.68A1.86,1.86,0,0,1,14.66,51Z"
                    fill="#fff" />
                <path id="Path_60" data-name="Path 60"
                    d="M16.09,60.8c.36-.1-.19-.77-.49-.59S15.77,60.92,16.09,60.8Z" fill="#5df" />
                <path id="Path_61" data-name="Path 61"
                    d="M13.41,61.52c.36-.11-.2-.77-.49-.59S13.09,61.64,13.41,61.52Z" fill="#5df" />
                <path id="Path_62" data-name="Path 62"
                    d="M10.78,62.22c.39-.11-.21-.83-.53-.63S10.44,62.35,10.78,62.22Z" fill="#5df" />
                <path id="Path_63" data-name="Path 63"
                    d="M14.68,61.18c.36-.11-.19-.77-.48-.59S14.37,61.3,14.68,61.18Z" fill="#5df" />
                <path id="Path_64" data-name="Path 64"
                    d="M12,61.9c.36-.11-.2-.77-.49-.59S11.69,62,12,61.9Z" fill="#5df" />
                <path id="Path_65" data-name="Path 65"
                    d="M9.37,62.6c.39-.12-.21-.83-.52-.64S9,62.72,9.37,62.6Z" fill="#5df" />
                <path id="Path_66" data-name="Path 66"
                    d="M17.53,61.65c.36-.1-.19-.77-.49-.58S17.21,61.77,17.53,61.65Z" fill="#5df" />
                <path id="Path_67" data-name="Path 67"
                    d="M14.85,62.37c.36-.11-.2-.77-.49-.59S14.53,62.48,14.85,62.37Z" fill="#5df" />
                <path id="Path_68" data-name="Path 68"
                    d="M12.22,63.07c.38-.12-.21-.83-.53-.63S11.88,63.19,12.22,63.07Z" fill="#5df" />
                <path id="Path_69" data-name="Path 69"
                    d="M16.12,62c.36-.11-.19-.77-.49-.59S15.81,62.14,16.12,62Z" fill="#5df" />
                <path id="Path_70" data-name="Path 70"
                    d="M13.44,62.74c.36-.11-.2-.77-.49-.58S13.13,62.85,13.44,62.74Z" fill="#5df" />
                <path id="Path_71" data-name="Path 71"
                    d="M10.81,63.44c.39-.11-.21-.83-.53-.63S10.47,63.57,10.81,63.44Z" fill="#5df" />
                <path id="Path_72" data-name="Path 72"
                    d="M19,62.51c.36-.11-.19-.77-.48-.59S18.73,62.62,19,62.51Z" fill="#5df" />
                <path id="Path_73" data-name="Path 73"
                    d="M16.37,63.21c.35-.1-.2-.77-.49-.58S16.05,63.33,16.37,63.21Z" fill="#5df" />
                <path id="Path_74" data-name="Path 74"
                    d="M13.73,63.92c.39-.12-.21-.83-.53-.64S13.39,64,13.73,63.92Z" fill="#5df" />
                <path id="Path_75" data-name="Path 75"
                    d="M17.64,62.88c.36-.11-.2-.77-.49-.59S17.32,63,17.64,62.88Z" fill="#5df" />
                <path id="Path_76" data-name="Path 76"
                    d="M15,63.59c.36-.11-.2-.77-.49-.59S14.64,63.71,15,63.59Z" fill="#5df" />
                <path id="Path_77" data-name="Path 77"
                    d="M12.33,64.29c.38-.11-.21-.83-.53-.63S12,64.41,12.33,64.29Z" fill="#5df" />
                <path id="Path_78" data-name="Path 78"
                    d="M20.74,63.31c.36-.11-.19-.77-.49-.59S20.43,63.42,20.74,63.31Z" fill="#5df" />
                <path id="Path_79" data-name="Path 79"
                    d="M18.07,64c.35-.11-.2-.77-.49-.59S17.75,64.14,18.07,64Z" fill="#5df" />
                <path id="Path_80" data-name="Path 80"
                    d="M15.44,64.72c.39-.11-.21-.83-.53-.63S15.09,64.84,15.44,64.72Z" fill="#5df" />
                <path id="Path_81" data-name="Path 81"
                    d="M19.34,63.68c.36-.11-.19-.77-.49-.59S19,63.8,19.34,63.68Z" fill="#5df" />
                <path id="Path_82" data-name="Path 82"
                    d="M16.66,64.39c.36-.1-.2-.77-.49-.58S16.34,64.51,16.66,64.39Z" fill="#5df" />
                <path id="Path_83" data-name="Path 83"
                    d="M14,65.1c.38-.12-.21-.83-.53-.64S13.69,65.22,14,65.1Z" fill="#5df" />
                <path id="Path_84" data-name="Path 84"
                    d="M22.18,64.15c.36-.1-.19-.77-.49-.59S21.87,64.27,22.18,64.15Z" fill="#5df" />
                <path id="Path_85" data-name="Path 85"
                    d="M19.5,64.87c.36-.11-.2-.77-.49-.59S19.19,65,19.5,64.87Z" fill="#5df" />
                <path id="Path_86" data-name="Path 86"
                    d="M16.87,65.57c.39-.12-.21-.83-.52-.64S16.53,65.69,16.87,65.57Z" fill="#5df" />
                <path id="Path_87" data-name="Path 87"
                    d="M20.78,64.53c.35-.11-.2-.77-.49-.59S20.46,64.64,20.78,64.53Z" fill="#5df" />
                <path id="Path_88" data-name="Path 88"
                    d="M18.1,65.24c.35-.11-.2-.77-.49-.59S17.78,65.36,18.1,65.24Z" fill="#5df" />
                <path id="Path_89" data-name="Path 89"
                    d="M15.47,65.94c.38-.11-.21-.83-.53-.63S15.13,66.06,15.47,65.94Z" fill="#5df" />
                <path id="Path_90" data-name="Path 90" d="M26.68,55.18.3,61.08l15,7.61,27.1-5.91Z"
                    fill="#f8f8ff" />
                <path id="Path_91" data-name="Path 91"
                    d="M.3,61.08l.35,4.36,15,7.61,27.1-5.91-.35-4.36L15.26,68.69Z" fill="#66b6e6" />
                <path id="Path_92" data-name="Path 92"
                    d="M27.63,52.53h-.07l-3.63.79a.46.46,0,0,0-.31.49l.33,7a.39.39,0,0,0,.1.25l.07.1.09,0h.11l2.37.11v-.62l5.21-1.13c.19-.05.43-.32.32-.49L28,52.86C27.84,52.72,27.77,52.55,27.63,52.53Z"
                    fill="#c83737" />
                <path id="Path_93" data-name="Path 93"
                    d="M4.74,52.71a17.05,17.05,0,0,0,4.68,3c10.08,4.42,22.94-.81,28.73-11.69s2.32-23.26-7.76-27.68a18.66,18.66,0,0,0-5.53-1.44l-1.92,3.6A17.15,17.15,0,0,1,27,19.74c8.87,3.88,12.24,14.19,7.54,23S18.87,55.58,10,51.7c-1.29-.58-4.24,1.17-5.33.31Z"
                    fill="#f55" />
                <path id="Path_94" data-name="Path 94"
                    d="M7.64,52.89a17.05,17.05,0,0,0,4.68,3c10.07,4.42,22.94-.81,28.73-11.68S43.37,21,33.29,16.56a18.64,18.64,0,0,0-5.54-1.44l-1.91,3.6a17.15,17.15,0,0,1,4.09,1.2c8.87,3.88,12.24,14.19,7.54,23s-15.7,12.83-24.56,9c-1.29-.58-4.25,1.17-5.33.31Z"
                    fill="#ff8080" />
                <path id="Path_95" data-name="Path 95"
                    d="M26.53,53.48l3.63-.79c.19,0,.26.17.38.34l4.27,6.13c.12.17-.12.45-.31.49L26.93,61.3a.33.33,0,0,1-.38-.27.16.16,0,0,1,0-.07l-.33-7A.46.46,0,0,1,26.53,53.48Z"
                    fill="#ff8080" />
                <path id="Path_96" data-name="Path 96"
                    d="M28.77,53.34a2.08,2.08,0,0,0-1.6,2.14,1.53,1.53,0,0,0,1.62,1.43,1.28,1.28,0,0,0,.27,0,2.08,2.08,0,0,0,1.6-2.14,1.52,1.52,0,0,0-1.61-1.43A1.26,1.26,0,0,0,28.77,53.34Zm.13,1.6a.14.14,0,0,1,.18.08s0,0,0,0a.18.18,0,0,1-.16.2.13.13,0,0,1-.17-.07.09.09,0,0,1,0,0,.18.18,0,0,1,.15-.2Z"
                    fill="#5df" />
                <path id="Path_97" data-name="Path 97"
                    d="M29.45,1.15a.3.3,0,0,0-.3.17L26.46,6.4l-.58-.23s-.12.08-.2.22l-8.55,16c-.08.14.48.52.52.53h0c0-.14,1,.49,2,.92s2.07.64,2,.75c.05,0,.71.17.78,0l1.7-3.49c.38.12.66.2.62.23s.53.13.57.05l4.29-8.91c0-.08,0-.15,0-.16L28.5,12l1.8-3.72c.07-.14.1-.26.06-.28l-.58-.23L32.4,2.81a.26.26,0,0,0-.08-.36h0L29.51,1.17Z"
                    fill="#ff8080" />
                <path id="Path_98" data-name="Path 98"
                    d="M18.37,22.55l3.17,1.7a.18.18,0,0,1,.07.25L20.4,27a.17.17,0,0,1-.22.1h0L17,25.44a.2.2,0,0,1-.07-.26l1.21-2.53a.18.18,0,0,1,.23-.11Z"
                    fill="#5df" />
                <path id="Path_99" data-name="Path 99"
                    d="M24,17.33a4.17,4.17,0,0,1,3.35-4.15,3.06,3.06,0,0,1,3.6,2.4,2.42,2.42,0,0,1,.06.54,4.16,4.16,0,0,1-3.35,4.14,3.06,3.06,0,0,1-3.6-2.4A2.33,2.33,0,0,1,24,17.33Zm2.69-.47a.73.73,0,0,0,.68.76.47.47,0,0,0,.17,0,1,1,0,0,0,.78-1,.72.72,0,0,0-.69-.75h-.16a1,1,0,0,0-.78,1Z"
                    fill="#2ad4ff" />
                <path id="Path_100" data-name="Path 100"
                    d="M24.39,17.73a4.16,4.16,0,0,1,3.35-4.14A3.06,3.06,0,0,1,31.34,16a2.48,2.48,0,0,1,.06.54,4.17,4.17,0,0,1-3.35,4.15,3.06,3.06,0,0,1-3.6-2.4A2.48,2.48,0,0,1,24.39,17.73Zm2.69-.46a.72.72,0,0,0,.69.75.43.43,0,0,0,.16,0,1,1,0,0,0,.78-1,.71.71,0,0,0-.68-.75.47.47,0,0,0-.17,0,1,1,0,0,0-.78,1Z"
                    fill="#5df" />
                <path id="Path_101" data-name="Path 101"
                    d="M29.74,0l3.5,1.64a0,0,0,0,1,0,.06h0l-.55,1a.06.06,0,0,1-.07,0l-3.5-1.63s0,0,0-.06h0l.55-1A0,0,0,0,1,29.74,0Z"
                    fill="#5df" />
                <path id="Path_102" data-name="Path 102" d="M12.29,47.55.22,51.84,12.46,57l11.45-4Z"
                    fill="#0cf" />
                <path id="Path_103" data-name="Path 103" d="M12.07,44.81,0,49.1l12.24,5.18,11.44-4Z"
                    fill="#5df" />
                <path id="Path_104" data-name="Path 104"
                    d="M23.68,50.26,23.91,53,12.46,57l-.22-2.73Z" fill="#2ad4ff" />
                <path id="Path_105" data-name="Path 105" d="M.07,49l.22,2.73L12.46,57l-.22-2.73Z"
                    fill="#2ad4ff" />
                <path id="Path_106" data-name="Path 106"
                    d="M14.66,51a3.44,3.44,0,0,1-2.17.92,4.67,4.67,0,0,1-2.56-.54c-1.57-.87-2-2.44-.95-3.51a3.36,3.36,0,0,1,2.16-.92,4.64,4.64,0,0,1,2.56.54,2.86,2.86,0,0,1,1.46,1.68A1.86,1.86,0,0,1,14.66,51Z"
                    fill="#fff" />
                <path id="Path_107" data-name="Path 107"
                    d="M16.09,60.8c.36-.1-.19-.77-.49-.59S15.77,60.92,16.09,60.8Z" fill="#5df" />
                <path id="Path_108" data-name="Path 108"
                    d="M13.41,61.52c.36-.11-.2-.77-.49-.59S13.09,61.64,13.41,61.52Z" fill="#5df" />
                <path id="Path_109" data-name="Path 109"
                    d="M10.78,62.22c.39-.11-.21-.83-.53-.63S10.44,62.35,10.78,62.22Z" fill="#5df" />
                <path id="Path_110" data-name="Path 110"
                    d="M14.68,61.18c.36-.11-.19-.77-.48-.59S14.37,61.3,14.68,61.18Z" fill="#5df" />
                <path id="Path_111" data-name="Path 111"
                    d="M12,61.9c.36-.11-.2-.77-.49-.59S11.69,62,12,61.9Z" fill="#5df" />
                <path id="Path_112" data-name="Path 112"
                    d="M9.37,62.6c.39-.12-.21-.83-.52-.64S9,62.72,9.37,62.6Z" fill="#5df" />
                <path id="Path_113" data-name="Path 113"
                    d="M17.53,61.65c.36-.1-.19-.77-.49-.58S17.21,61.77,17.53,61.65Z" fill="#5df" />
                <path id="Path_114" data-name="Path 114"
                    d="M14.85,62.37c.36-.11-.2-.77-.49-.59S14.53,62.48,14.85,62.37Z" fill="#5df" />
                <path id="Path_115" data-name="Path 115"
                    d="M12.22,63.07c.38-.12-.21-.83-.53-.63S11.88,63.19,12.22,63.07Z" fill="#5df" />
                <path id="Path_116" data-name="Path 116"
                    d="M16.12,62c.36-.11-.19-.77-.49-.59S15.81,62.14,16.12,62Z" fill="#5df" />
                <path id="Path_117" data-name="Path 117"
                    d="M13.44,62.74c.36-.11-.2-.77-.49-.58S13.13,62.85,13.44,62.74Z" fill="#5df" />
                <path id="Path_118" data-name="Path 118"
                    d="M10.81,63.44c.39-.11-.21-.83-.53-.63S10.47,63.57,10.81,63.44Z" fill="#5df" />
                <path id="Path_119" data-name="Path 119"
                    d="M19,62.51c.36-.11-.19-.77-.48-.59S18.73,62.62,19,62.51Z" fill="#5df" />
                <path id="Path_120" data-name="Path 120"
                    d="M16.37,63.21c.35-.1-.2-.77-.49-.58S16.05,63.33,16.37,63.21Z" fill="#5df" />
                <path id="Path_121" data-name="Path 121"
                    d="M13.73,63.92c.39-.12-.21-.83-.53-.64S13.39,64,13.73,63.92Z" fill="#5df" />
                <path id="Path_122" data-name="Path 122"
                    d="M17.64,62.88c.36-.11-.2-.77-.49-.59S17.32,63,17.64,62.88Z" fill="#5df" />
                <path id="Path_123" data-name="Path 123"
                    d="M15,63.59c.36-.11-.2-.77-.49-.59S14.64,63.71,15,63.59Z" fill="#5df" />
                <path id="Path_124" data-name="Path 124"
                    d="M12.33,64.29c.38-.11-.21-.83-.53-.63S12,64.41,12.33,64.29Z" fill="#5df" />
                <path id="Path_125" data-name="Path 125"
                    d="M20.74,63.31c.36-.11-.19-.77-.49-.59S20.43,63.42,20.74,63.31Z" fill="#5df" />
                <path id="Path_126" data-name="Path 126"
                    d="M18.07,64c.35-.11-.2-.77-.49-.59S17.75,64.14,18.07,64Z" fill="#5df" />
                <path id="Path_127" data-name="Path 127"
                    d="M15.44,64.72c.39-.11-.21-.83-.53-.63S15.09,64.84,15.44,64.72Z" fill="#5df" />
                <path id="Path_128" data-name="Path 128"
                    d="M19.34,63.68c.36-.11-.19-.77-.49-.59S19,63.8,19.34,63.68Z" fill="#5df" />
                <path id="Path_129" data-name="Path 129"
                    d="M16.66,64.39c.36-.1-.2-.77-.49-.58S16.34,64.51,16.66,64.39Z" fill="#5df" />
                <path id="Path_130" data-name="Path 130"
                    d="M14,65.1c.38-.12-.21-.83-.53-.64S13.69,65.22,14,65.1Z" fill="#5df" />
                <path id="Path_131" data-name="Path 131"
                    d="M22.18,64.15c.36-.1-.19-.77-.49-.59S21.87,64.27,22.18,64.15Z" fill="#5df" />
                <path id="Path_132" data-name="Path 132"
                    d="M19.5,64.87c.36-.11-.2-.77-.49-.59S19.19,65,19.5,64.87Z" fill="#5df" />
                <path id="Path_133" data-name="Path 133"
                    d="M16.87,65.57c.39-.12-.21-.83-.52-.64S16.53,65.69,16.87,65.57Z" fill="#5df" />
                <path id="Path_134" data-name="Path 134"
                    d="M20.78,64.53c.35-.11-.2-.77-.49-.59S20.46,64.64,20.78,64.53Z" fill="#5df" />
                <path id="Path_135" data-name="Path 135"
                    d="M18.1,65.24c.35-.11-.2-.77-.49-.59S17.78,65.36,18.1,65.24Z" fill="#5df" />
                <path id="Path_136" data-name="Path 136"
                    d="M15.47,65.94c.38-.11-.21-.83-.53-.63S15.13,66.06,15.47,65.94Z" fill="#5df" />
            </g>
        </g>
    </g>
</svg>