<svg xmlns="http://www.w3.org/2000/svg" viewBox="0 0 40.78 68.73"><g id="Layer_2" data-name="Layer 2"><g id="Layer_1-2" data-name="Layer 1"><g id="Group_29" data-name="Group 29"><path id="Path_22" data-name="Path 22" d="M2.05,8.3H38.74a1.9,1.9,0,0,1,2,1.75l0,56.91a1.9,1.9,0,0,1-2,1.75H2A1.91,1.91,0,0,1,0,67l0-56.9A1.91,1.91,0,0,1,2.05,8.3Z" fill="#fff"/><path id="Path_23" data-name="Path 23" d="M3.2,13.2H37.7a1.89,1.89,0,0,1,2,1.75V59.85a1.9,1.9,0,0,1-2,1.75H3.19a1.91,1.91,0,0,1-2-1.76L1.17,15A1.91,1.91,0,0,1,3.2,13.2Z" fill="#66b6e6"/><path id="Path_24" data-name="Path 24" d="M14.05,24c-3.66,0-7.32,0-11,0-.26.07-.45.64-.39,1.18q0,15.11,0,30.21c.07.61.43.8.69.71,3.62,0,7.25,0,10.88,0,.26-.09.42-.69.37-1.22q0-15.07,0-30.15C14.55,24.24,14.28,24,14.05,24Z" fill="#fff"/><path id="Path_25" data-name="Path 25" d="M37.21,24c-6.53,0-13.06,0-19.58,0a1,1,0,0,0-.7,1.18c0,10.07,0,20.14,0,30.21a1,1,0,0,0,1.23.71c6.46,0,12.92,0,19.38,0a1,1,0,0,0,.66-1.22c0-10,0-20.1,0-30.15A.92.92,0,0,0,37.21,24Z" fill="#fff"/><path id="Path_26" data-name="Path 26" d="M36.34,37.21l-14,.12a.1.1,0,0,0-.1.09.31.31,0,0,0,0,.19.21.21,0,0,0,.15.09l14-.12a.1.1,0,0,0,.1-.09.24.24,0,0,0-.05-.18A.18.18,0,0,0,36.34,37.21Z" fill="#5df"/><path id="Path_27" data-name="Path 27" d="M36.75,38.89,20.41,39a.11.11,0,0,0-.11.1.29.29,0,0,0,.05.2.23.23,0,0,0,.16.1l16.34-.13a.11.11,0,0,0,.1-.1.24.24,0,0,0-.05-.2A.16.16,0,0,0,36.75,38.89Z" fill="#5df"/><path id="Path_28" data-name="Path 28" d="M37.15,40.52l-16.34.13a.12.12,0,0,0-.11.1.29.29,0,0,0,.05.2.19.19,0,0,0,.16.1l16.34-.13a.11.11,0,0,0,.11-.1.29.29,0,0,0,0-.2A.23.23,0,0,0,37.15,40.52Z" fill="#5df"/><path id="Path_29" data-name="Path 29" d="M35.11,42.23l-13.93.12a.1.1,0,0,0-.1.1.28.28,0,0,0,0,.2.25.25,0,0,0,.16.1l13.93-.12a.12.12,0,0,0,.1-.1.29.29,0,0,0-.05-.2A.2.2,0,0,0,35.11,42.23Z" fill="#5df"/><path id="Path_30" data-name="Path 30" d="M34.08,46.83l-14,.12A.11.11,0,0,0,20,47a.24.24,0,0,0,.05.18.18.18,0,0,0,.14.1l14-.12a.09.09,0,0,0,.1-.09.26.26,0,0,0,0-.19A.19.19,0,0,0,34.08,46.83Z" fill="#5df"/><path id="Path_31" data-name="Path 31" d="M34.48,48.51l-16.34.13a.09.09,0,0,0-.1.1.28.28,0,0,0,0,.2.27.27,0,0,0,.16.1l16.34-.13a.12.12,0,0,0,.11-.1.29.29,0,0,0,0-.2A.18.18,0,0,0,34.48,48.51Z" fill="#5df"/><path id="Path_32" data-name="Path 32" d="M34.89,50.14l-16.35.13a.1.1,0,0,0-.1.1.24.24,0,0,0,0,.2.18.18,0,0,0,.15.1L35,50.54a.1.1,0,0,0,.11-.1.29.29,0,0,0-.05-.2A.23.23,0,0,0,34.89,50.14Z" fill="#5df"/><path id="Path_33" data-name="Path 33" d="M32.84,51.85,18.92,52a.1.1,0,0,0-.11.1.29.29,0,0,0,.05.2.23.23,0,0,0,.15.1l13.93-.12a.12.12,0,0,0,.1-.1.28.28,0,0,0,0-.2A.16.16,0,0,0,32.84,51.85Z" fill="#5df"/><path id="Path_34" data-name="Path 34" d="M12,37.1l-7.87.12s-.06,0-.06.1a.44.44,0,0,0,0,.2c0,.06.06.1.09.1L12,37.5s.05,0,.06-.1a.69.69,0,0,0,0-.2C12,37.14,12,37.1,12,37.1Z" fill="#5df"/><path id="Path_35" data-name="Path 35" d="M12.89,40.73l-9.24.13s0,0-.06.1a.64.64,0,0,0,0,.2c0,.07.06.1.09.1L13,41.14s.05,0,.06-.1a.51.51,0,0,0,0-.21C13,40.77,12.92,40.73,12.89,40.73Z" fill="#5df"/><path id="Path_36" data-name="Path 36" d="M12,44.08l-7.87.12s-.06,0-.06.1a.47.47,0,0,0,0,.2c0,.06.06.1.09.1L12,44.48s.05,0,.06-.1a.64.64,0,0,0,0-.2C12,44.11,12,44.08,12,44.08Z" fill="#5df"/><path id="Path_37" data-name="Path 37" d="M12.89,47.62l-9.24.13s0,0-.06.1a.75.75,0,0,0,0,.2c0,.06.06.1.09.1L13,48s.05,0,.06-.1a.44.44,0,0,0,0-.2C13,47.65,12.92,47.62,12.89,47.62Z" fill="#5df"/><path id="Path_38" data-name="Path 38" d="M12,51l-7.87.12s-.06,0-.06.1a.46.46,0,0,0,0,.2c0,.06.06.1.09.1L12,51.36s.05,0,.06-.1a.64.64,0,0,0,0-.2C12,51,12,51,12,51Z" fill="#5df"/><path id="Path_39" data-name="Path 39" d="M5,30.5l1.46,0L7,31.1,7.36,30l.23.56.2-.18h1l.32-1.26.22,1.13.26,1.39.6-1.67.4.64,1.45,0-.34.48a10.31,10.31,0,0,1-.65.84,9.18,9.18,0,0,1-.83.82c-.28.24-.55.45-.78.62s-.41.3-.54.4-.23.17-.37.12A2.35,2.35,0,0,1,8,33.58c-.22-.17-.46-.35-.74-.58s-.58-.49-.86-.75a7.74,7.74,0,0,1-.73-.78,6.2,6.2,0,0,1-.47-.67A2,2,0,0,1,5,30.54Z" fill="#ff8080"/><path id="Path_40" data-name="Path 40" d="M5,30.2l1.46,0,.5.48.4-1.11.26.68.15-.1.87,0,.5-1.71L9.68,31l.52-1.43.52.81,1.36,0a6.2,6.2,0,0,0,.44-.94,6,6,0,0,0,.26-1,1.94,1.94,0,0,0,0-.83,1.38,1.38,0,0,0-.38-.62,1,1,0,0,0-.47-.26,2.7,2.7,0,0,0-.41-.08,3,3,0,0,0-.42,0,3.24,3.24,0,0,0-.62.12,3.83,3.83,0,0,0-.65.3,6,6,0,0,0-.58.4,6.66,6.66,0,0,0-.5.45c-.11.1-.11.11-.27,0s-.48-.33-.82-.52a7.3,7.3,0,0,0-1-.5,3.53,3.53,0,0,0-.8-.24,1.23,1.23,0,0,0-.54,0,.9.9,0,0,0-.4.23,1.31,1.31,0,0,0-.31.43,1.79,1.79,0,0,0-.15.72,3.86,3.86,0,0,0,.14,1A8,8,0,0,0,5,30Z" fill="#5df"/><path id="Path_41" data-name="Path 41" d="M8.55,11.42H32.3c3.77,0,3.57,7.42.19,7.44L8.55,19C4.72,19,4.78,11.42,8.55,11.42Z" fill="#ff8080"/><path id="Path_42" data-name="Path 42" d="M13.54,6.54a.27.27,0,0,0-.27.27h0v6.7a.27.27,0,0,0,.27.26H27.61a.27.27,0,0,0,.27-.26V6.81a.27.27,0,0,0-.27-.27H24.19a4,4,0,0,1-7.24,0Z" fill="#ff8080"/><path id="Path_43" data-name="Path 43" d="M20.64,0a5.44,5.44,0,0,0-5.46,5.38,5.46,5.46,0,0,0,10.92,0A5.44,5.44,0,0,0,20.64,0Zm0,2.78a2.62,2.62,0,0,1,2.68,2.56v0A2.62,2.62,0,0,1,20.68,8h0A2.63,2.63,0,0,1,18,5.41v0a2.62,2.62,0,0,1,2.65-2.6Z" fill="#ff8080"/><path id="Path_44" data-name="Path 44" d="M36.34,27.91l-14,.11a.11.11,0,0,0-.1.1.24.24,0,0,0,.05.18.17.17,0,0,0,.14.09l14-.11a.09.09,0,0,0,.09-.09.25.25,0,0,0,0-.19A.17.17,0,0,0,36.34,27.91Z" fill="#5df"/><path id="Path_45" data-name="Path 45" d="M36.75,29.58l-16.34.13a.12.12,0,0,0-.11.1.29.29,0,0,0,.05.2.18.18,0,0,0,.16.1L36.85,30a.12.12,0,0,0,.1-.1.23.23,0,0,0-.05-.2A.19.19,0,0,0,36.75,29.58Z" fill="#5df"/><path id="Path_46" data-name="Path 46" d="M37.15,31.22l-16.34.13a.11.11,0,0,0-.11.1.29.29,0,0,0,.05.2.2.2,0,0,0,.16.1l16.34-.13a.11.11,0,0,0,.11-.1.29.29,0,0,0,0-.2A.2.2,0,0,0,37.15,31.22Z" fill="#5df"/><path id="Path_47" data-name="Path 47" d="M35.11,32.92,21.18,33a.11.11,0,0,0-.1.1.27.27,0,0,0,0,.2.19.19,0,0,0,.16.1l13.93-.12a.11.11,0,0,0,.1-.1.29.29,0,0,0-.05-.2A.23.23,0,0,0,35.11,32.92Z" fill="#5df"/></g></g></g></svg>