<svg xmlns="http://www.w3.org/2000/svg" viewBox="0 0 119.76 118.85"><g id="Layer_2" data-name="Layer 2"><g id="Layer_1-2" data-name="Layer 1"><g id="Layer_2-2" data-name="Layer 2"><g id="Layer_1-3" data-name="Layer 1"><path id="Path_1" data-name="Path 1" d="M119.76,12.46c-1.61.94-3.18,1.87-4.69,2.91a32.8,32.8,0,0,0-3.88,3.18A28,28,0,0,0,106.06,25,21.85,21.85,0,0,0,103,35.31c-.13,4.73-.22,9.45-1.39,14.09a38.37,38.37,0,0,1-6.69,14.33,35.52,35.52,0,0,1-11.71,9.84A46.74,46.74,0,0,1,68.7,78.23a76.89,76.89,0,0,1-13.46,1,1.19,1.19,0,0,1-1.33-.91,68.13,68.13,0,0,1-3.07-15.28,46.53,46.53,0,0,1,1.88-17.86,37.79,37.79,0,0,1,7.64-13.59,43.84,43.84,0,0,1,10.87-8.83,55.5,55.5,0,0,1,9-4.22,82.78,82.78,0,0,1,11.53-3.39A122.4,122.4,0,0,1,106.84,13c2.41-.2,4.83-.26,7.24-.41C116,12.44,117.85,12.5,119.76,12.46ZM67.7,39.54c0,3,0,6,0,9,0,.7-.19.92-.91.91-2.74,0-5.48,0-8.21,0-.68,0-.87.23-.86.87,0,2.87,0,5.74,0,8.61,0,.72.24.91.94.9,2.6,0,5.2,0,7.8,0,.92,0,1.24.23,1.23,1.18-.06,2.64,0,5.27,0,7.9,0,.5,0,.91.71.9,3,0,5.94,0,8.91,0,.6,0,.75-.21.75-.77,0-2.66.07-5.33,0-8,0-1,.24-1.22,1.15-1.2,2.64,0,5.28,0,7.9,0,.72,0,.91-.22.9-.92q0-4.3,0-8.61c0-.66-.19-.86-.86-.85-2.73,0-5.48,0-8.21,0-.7,0-.91-.2-.9-.92.06-2.29.08-4.59,0-6.89,0-.71.22-1.47-.23-2.15a.68.68,0,0,0-.56-.17H68.34c-.24,0-.48,0-.64.21Z" fill="#67b6e6"/><path id="Path_2" data-name="Path 2" d="M62.1,24.74c-1.34,1.42-2.77,2.75-4.05,4.26a42.88,42.88,0,0,0-6.56,10.59c-.49,1.14-.9,2.31-1.4,3.6-7.65-12.86-17.58-23-32.29-27.77.19.78.73.89,1.09,1.07a59.64,59.64,0,0,1,9.74,6.8,67.42,67.42,0,0,1,8.58,8.4,71.79,71.79,0,0,1,9.23,13.43,11.65,11.65,0,0,0,.89,1.58A5.88,5.88,0,0,1,48.19,52a10.17,10.17,0,0,0-.3,2.58c0,2.12-.47,4.22-.12,6.36a19.24,19.24,0,0,1,0,3.13c.5.78.12,1.68.35,2.52a15.82,15.82,0,0,1,.28,2.74c.47,1.43.54,2.93.91,4.37.46,1.83.92,3.64,1.41,5.53a46.37,46.37,0,0,1-16.5-8.38A39.93,39.93,0,0,1,21.46,51.7,51.07,51.07,0,0,1,19.2,40.08c-.16-2-.11-4-.14-6.06a26.79,26.79,0,0,0-5.78-16.16A36.4,36.4,0,0,0,.47,7.44,5.2,5.2,0,0,1,0,7.09c2.78.16,5.36-.13,7.94.2,1.36.18,2.74.09,4.12.21,4.26.33,8.52.78,12.76,1.42a94.64,94.64,0,0,1,22.52,6.13A59.27,59.27,0,0,1,62.11,24C62.5,24.26,62.37,24.44,62.1,24.74Z" fill="#2e6e99"/><path id="Path_3" data-name="Path 3" d="M56.56,8.83a8.76,8.76,0,1,1,17.51-.15v.13a8.75,8.75,0,1,1-17.5,0Z" fill="#67b6e6"/><g id="Group_1" data-name="Group 1"><path id="Path_4" data-name="Path 4" d="M88.13,88.15a2.66,2.66,0,0,0-3,.26c-.65.53-1.29,1.07-1.91,1.65-1,.93-1.89.81-2.38-.54-.36-1-.64-.63-1-.08a5.52,5.52,0,0,1-3.27,2.68c-.25.07-.56.08-.72.34s-.6.58-.51.93.59.19.9.25a10.09,10.09,0,0,1,2.73.63,5.94,5.94,0,0,1-2,.8c-1.32.32-2.63.67-3.83-.41-.26-.23-.56-.13-.76.17a5.59,5.59,0,0,1-2,.81h-.47a3.39,3.39,0,0,1-1.17-1.15c-.18-.82-.36-1.63-.54-2.46a11.71,11.71,0,0,0-.31-2.42c0-.4-.11-.81-.16-1.23a5.39,5.39,0,0,0-.18-1.6c0-.28,0-.56-.07-.84l-.12-.43-.06-.78-.15-.42,0-.39c0-.07,0-.21-.08-.22s-.22.08-.17.23a2,2,0,0,0-.19,1.25l.07.35.09.84a23.62,23.62,0,0,0,.48,3.56c0,.44.07.87.11,1.3l.09.28c0,.52.07,1,.11,1.55s.1,1-.29,1.39a12.53,12.53,0,0,1-3,1.68c-2.11.72-4.22,1.26-6.37.2a2.44,2.44,0,0,1-1.22-3.06c-.05.12-.09.24-.14.37-1,2.84.27,4.75,3.34,4.8a8.94,8.94,0,0,0,3.85-.71c1.47-.64,3-1.22,3.75-2.85.44-.29.5.07.61.35-.05.26.12.44.2.65a.74.74,0,0,0,.39.59h0a1.21,1.21,0,0,0,1.73.45h.07a1,1,0,0,0,.84-.4h0c.37-.12.53-.47.75-.74s.37-.36.65-.13a2,2,0,0,0,2.67,1.15c.77-.22,1.52-.53,2.29-.79,1.88-.67,3.71-1.54,5.83-1.19.64.1.75-.64.89-1s-.4-.37-.67-.4c-1.36-.2-2.74-.34-4.1-.52-1.64-.22-1.63-.23-.72-1.5a7.37,7.37,0,0,1,.49-.65c.32-.37.64-.49.9.09a3.69,3.69,0,0,0,.41.69c.28.38.59,1.06.87,1a13.77,13.77,0,0,0,5.24-.75,3.55,3.55,0,0,0,1.9-2.23,1,1,0,0,0-.5-1.35Zm-.87,2.13a11.24,11.24,0,0,1-4,.67c1.06-1.57,2.61-2.14,4-1.56.25.11.54.18.54.51s-.32.3-.52.39Z" fill="#2e6e99"/><path id="Path_6" data-name="Path 6" d="M38.54,100.82c3.07.3,5.18-1.17,6.85-3.51a2.8,2.8,0,0,0,.38-.7c.08-.25.15-.59-.1-.75s-.36.21-.51.35a1.05,1.05,0,0,1-1.89-.41,1.6,1.6,0,0,1-.11-.39c-.15-1,.59-2.59,1.3-2.75s1.56.89,1.81,2.13c.48,2.34-1.53,5.91-3.82,6.6C41.12,101.79,39.84,101.25,38.54,100.82Zm5.55-6.62c-.16,0-.32.18-.33.54s.22.52.58.52.64-.19.63-.59-.35-.42-.88-.47Z" fill="#2e6e99"/><path id="Path_9" data-name="Path 9" d="M59.08,93.74c1.17-.37,2.25-.48,3-1.34,0-.08-.07-.17-.11-.17-1.68-.13-1.87-.46-1.15-2a4.77,4.77,0,0,1,1.27-1.68c.13-.11.29-.22.45-.11s.07.3,0,.46c-.16.41-.12,1-.77,1-.28,0-.56.21-.46.54s.38.22.61.23c1.08,0,1.18.16.85,1.2C62.1,93.91,61.49,94.24,59.08,93.74Z" fill="#2e6e99"/><path id="Path_12" data-name="Path 12" d="M52.14,96.51h0l-.24.19-.21.13a5.59,5.59,0,0,1-1.92.56c-1.45.29-1.92-.26-1.5-1.72,0,0,0-.1,0-.15l.14.13,1,.26.42,0,1.42-.23a.19.19,0,0,1,.19,0c1-.55,1.07-.77.38-1.75-.47-.65-.93-1.37-1.85-1.42-.67,0-.55-.45-.48-.84s.27-.86.86-.7a1.88,1.88,0,0,1,.55.27A4.18,4.18,0,0,1,52.14,96.51Z" fill="#2e6e99"/><path id="Path_13" data-name="Path 13" d="M73.74,90.93c-.25.45-.49.62-.93.27s-.77-.27-1,.26c-.06.13-.23.21-.37.34A4.9,4.9,0,0,1,70.38,91c-.25-.34.15-.6.31-.88.31-.54.61-.09.92,0s.66.17.84-.23c.36-.81.73-.16,1.09,0C74.16,90.15,74,90.5,73.74,90.93Z" fill="#2e6e99"/><path id="Path_14" data-name="Path 14" d="M43.91,84.37c.13.7.32,1.42-.22,1.53s-1.25.67-1.9.32-.22-.81-.2-1.34c.26.25.14.69.58.68a.59.59,0,0,0,.6-.56c0-.09-.05-.41.23-.09C43.63,85.63,43.69,84.92,43.91,84.37Z" fill="#2e6e99"/><path id="Path_15" data-name="Path 15" d="M39.06,87.2c.33.42,1.09.37,1,1,0,.34-.2,1-.72.92s-1-.34-1-.91A1.21,1.21,0,0,1,39.06,87.2Z" fill="#2e6e99"/><path id="Path_18" data-name="Path 18" d="M39.79,91.8a1.8,1.8,0,0,0,.15,1.88c.59,1,.48,1.22-.66,1.51-.85.22-1.71.34-2.58.48-.21,0-.5.14-.65-.09s.09-.42.22-.6a4.64,4.64,0,0,0,.8-1.73c.11-.53.38-1.33-.15-1.58s-.85.56-1.22,1a1.49,1.49,0,0,0-.17.36,3.81,3.81,0,0,0-.87,1.86l-.18.41-1.24.39-.36,0-.24,0A2.16,2.16,0,0,1,31,93.8c-.2-1.09-.27-2.2-.4-3.31-.29-2.3-.43-4.62-.91-7a2.34,2.34,0,0,0-.36,1.76c.13,1.21.3,2.4.44,3.6.25,2.14.42,4.29.75,6.42.23,1.5.95,1.94,2.48,1.83.69,0,1,.34,1,1a2.81,2.81,0,0,0,.77,1.82c.5.56,1.06,1.24,1.87.83a1.94,1.94,0,0,0,.88-2.19,1.51,1.51,0,0,0-.18-.58c-.46-.68-.31-.91.53-1.07s2-.31,2.54-1.26A3.45,3.45,0,0,0,39.79,91.8ZM35.89,93c.72-.15.86.23.62.78a1.66,1.66,0,0,1-1.45,1A3.35,3.35,0,0,1,35.89,93Zm-1,5.11a.5.5,0,0,1,0-.46c.09-.18.3-.07.44,0A3.11,3.11,0,0,1,37,99.33a2.33,2.33,0,0,1-2.16-1.19Z" fill="#2e6e99"/></g><path id="Path_20" data-name="Path 20" d="M77.81,39.5l-10.11,0c.15-.23.4-.21.64-.21h8.91A.67.67,0,0,1,77.81,39.5Z" fill="#7eb0ce"/><g id="Group_2" data-name="Group 2"><path id="Path_5" data-name="Path 5" d="M76,114.07c-.1,1.18-.19,2.35-.3,3.53-.07.87-.4,1.38-1.42,1.22a10.72,10.72,0,0,0-1.7,0c-.29,0-.65,0-.58-.48s.07-.69.56-.67a8.28,8.28,0,0,0,1.22,0c.2,0,.42-.12.37-.37s-.26-.14-.42-.15c-1.65-.15-1.64-.15-1.45-1.8.08-.74.18-1.48.21-2.22s.52-.67,1-.64.43.47.41.82c-.06.71-.13,1.41-.18,2.12,0,.26-.08.57.31.63s.38-.29.4-.54c.08-.7.17-1.41.21-2.11s.11-1,.84-.94.57.55.55,1Z" fill="#67b6e6"/><path id="Path_7" data-name="Path 7" d="M102.42,113.31c-.1,1-.15,2-.22,3s-.41.93-1.06.81H99.72c-.88.15-1.18-.27-1.11-1.08.09-1,.23-1.94.27-2.91,0-.69.49-.6.91-.64.59,0,.56.35.52.73-.06.74-.14,1.47-.2,2.21,0,.23-.16.59.25.64s.47-.3.5-.61c.07-.74.17-1.47.19-2.21s.3-.79.88-.78S102.46,112.91,102.42,113.31Z" fill="#67b6e6"/><path id="Path_8" data-name="Path 8" d="M39.46,112.56a4.42,4.42,0,0,0-2.57.16c-.77.86-.47,1.94-.6,2.93,0,.58-.33,1.32.56,1.47a11.76,11.76,0,0,0,2.22,0,.7.7,0,0,0,.67-.65c.12-1,.24-2.07.33-3.1a.72.72,0,0,0-.6-.82Zm-1,3.1c0,.25-.24.3-.45.3s-.34-.18-.34-.41v-.81h0c0-.24,0-.47,0-.71s.08-.46.42-.42.57.09.54.45c0,.54-.1,1.07-.18,1.6Z" fill="#67b6e6"/><path id="Path_10" data-name="Path 10" d="M27.55,111.3a.41.41,0,0,1-.32.48h-.09a5.45,5.45,0,0,1-.7,0c-.58,0-.94.06-1,.78s.11,1,.85.93c.41-.05.63.12.6.58s-.16.7-.59.6c-1.08-.22-1.1.55-1.22,1.23-.05.52.33,1.23-.72,1.26-.74,0-.85-.26-.68-.86,0-.13,0-.26,0-.39.12-1.6.24-3.2.37-4.8a.78.78,0,0,1,.2-.43,11.32,11.32,0,0,1,3.08,0C27.66,110.83,27.54,111.08,27.55,111.3Z" fill="#67b6e6"/><path id="Path_11" data-name="Path 11" d="M49.22,115.8c.08-.87.18-1.74.22-2.62,0-.51.2-.72.73-.7s1,.26,1.55.06a.42.42,0,0,1,.54.26.43.43,0,0,1,0,0,1.28,1.28,0,0,1-.09,1,.54.54,0,0,1-.74.1c-.87-.57-.75.08-.76.59s0,1.08-.06,1.62,0,1.14-.92,1.06-.4-.7-.5-1.09a1,1,0,0,1,0-.3Z" fill="#67b6e6"/><path id="Path_21" data-name="Path 21" d="M88.58,112.53a4.71,4.71,0,0,0-2.27.12c-.55,0-.61.48-.66.87-.1.94-.15,1.87-.21,2.81s.49.87,1.1.8h1c.65.09,1.26.06,1.42-.73a17,17,0,0,0,.22-3.1C89.2,112.85,89,112.54,88.58,112.53Zm-1.81,2.77c.08-.52.12-1,.19-1.58l.79,0v2.22l-.2.21C87,116.17,86.67,115.93,86.77,115.3Z" fill="#67b6e6"/></g></g></g></g></g></svg>